<?xml version="1.0" encoding="utf-8"?>
<!-- Generator: Adobe Illustrator 22.0.0, SVG Export Plug-In . SVG Version: 6.00 Build 0)  -->
<svg version="1.1" id="agv_x5F_west" xmlns="http://www.w3.org/2000/svg" xmlns:xlink="http://www.w3.org/1999/xlink" x="0px"
	 y="0px" viewBox="0 0 479.9954834 438.8007813" style="enable-background:new 0 0 479.9954834 438.8007813;" xml:space="preserve">
<style type="text/css">
	.st0{fill:#3F6D79;}
	.st1{fill:#204651;}
	.st2{fill:#35606C;}
	.st3{fill:#73AEBC;}
	.st4{fill:#5E94A1;}
	.st5{fill:#68A1AE;}
	.st6{fill:#548794;}
	.st7{fill:#7DBBC9;}
</style>
<polygon class="st0" points="293.5312195,279.9150696 257.9220276,259.3560791 186.7036743,300.4740601 186.7036743,310.5932922 
	222.312851,331.1522217 293.5312195,290.0342712 "/>
<path class="st1" d="M289.4043579,292.9509583c-0.0205994-0.0426331-0.0385132-0.0868835-0.059845-0.1290588
	c-0.0298767-0.0630188-0.062561-0.1233521-0.0958252-0.183075c-0.0314636-0.0582581-0.0670776-0.1136169-0.0999756-0.1708679
	c-0.2172546-0.3347168-0.4916077-0.6101685-0.8288574-0.8048706c-1.8959961-1.0946655-4.9700317,0.6801453-6.8660583,3.9641418
	c-0.3585815,0.6210632-0.6488037,1.2515869-0.8717651,1.8732605l-0.0002136-0.0002747l-4.1004028,2.3673401
	c1.1538391,2.2542725,3.375061,3.8218994,5.9638367,3.9906921c0.0953369,0.0061951,0.1905212,0.0126953,0.2868652,0.0150452
	c0.0582275,0.0014343,0.1149597,0.0090637,0.1735535,0.0090637c1.0710144,0,2.0846558-0.2464905,3.0002441-0.6781311
	c2.5184631-1.1873779,4.2732239-3.8158264,4.2732239-6.8752136
	C290.1791382,295.1131592,289.895813,293.9684448,289.4043579,292.9509583z"/>
<ellipse transform="matrix(0.5 -0.8660254 0.8660254 0.5 -114.9898224 398.3858337)" class="st2" cx="287.517334" cy="298.7770081" rx="2.0194974" ry="1.1659575"/>
<path class="st1" d="M238.9511108,322.0865479c-0.0205994-0.0426331-0.0385132-0.0868835-0.0598602-0.1290588
	c-0.0298615-0.0630188-0.0625458-0.1233521-0.0957947-0.183075c-0.0314789-0.0582581-0.0670776-0.1136475-0.0999908-0.1708984
	c-0.2172394-0.3346863-0.4916229-0.6101379-0.8288422-0.8048401c-1.8959961-1.0946655-4.9700317,0.6801453-6.8660736,3.9641113
	c-0.3585663,0.6210938-0.6488037,1.2515869-0.8717499,1.8732605l-0.0002289-0.0002441l-4.1004028,2.3673096
	c1.1538239,2.2542725,3.375061,3.8218994,5.9638519,3.9906921c0.0953217,0.0062256,0.1905212,0.0126953,0.28685,0.0150452
	c0.0582428,0.0014343,0.114975,0.0090942,0.1735687,0.0090942c1.0710144,0,2.0846405-0.246521,3.0002136-0.6781616
	c2.5184631-1.1873779,4.2732391-3.8157959,4.2732391-6.8751831
	C239.7258911,324.2487488,239.4425659,323.1040039,238.9511108,322.0865479z"/>
<ellipse transform="matrix(0.5 -0.8660254 0.8660254 0.5 -165.4485931 369.2598267)" class="st2" cx="237.0640869" cy="327.9125977" rx="2.0194974" ry="1.1659575"/>
<polygon class="st3" points="186.7036743,306.2133179 186.7036743,300.4740601 257.9220581,259.3561096 293.5312195,279.9150696 
	293.5312195,285.6543579 222.312851,326.7723083 "/>
<path class="st4" d="M186.7036743,300.4740601v-2.6757507c0-2.4513245,1.3077698-4.7164612,3.4306946-5.9421387l7.1501312-4.1281433
	l10.5808411,6.1088562v6.5757751l-10.5808411,6.1088562L186.7036743,300.4740601z"/>
<path class="st5" d="M197.2845001,306.5215149v-2.6757507c0-2.4513245,1.307785-4.7164612,3.4306946-5.9421387l7.1501465-4.0667419
	v6.5757751L197.2845001,306.5215149z"/>
<polygon class="st6" points="222.312851,320.8252869 186.7036743,300.4740601 186.7036743,306.2133179 222.312851,326.7723083 "/>
<polygon class="st7" points="293.5312195,279.9150696 293.5312195,285.6543579 222.312851,326.7723083 222.312851,320.8252869 "/>
<polygon class="st2" points="222.312851,326.7723083 222.312851,331.1522217 186.7036743,310.5932922 186.7036743,306.2133179 "/>
</svg>
