<?xml version="1.0" encoding="utf-8"?>
<!-- Generator: Adobe Illustrator 22.0.0, SVG Export Plug-In . SVG Version: 6.00 Build 0)  -->
<svg version="1.1" id="agv_x5F_south" xmlns="http://www.w3.org/2000/svg" xmlns:xlink="http://www.w3.org/1999/xlink" x="0px"
	 y="0px" viewBox="0 0 479.9954834 438.8007813" style="enable-background:new 0 0 479.9954834 438.8007813;" xml:space="preserve">
<style type="text/css">
	.st0{fill:#35606C;}
	.st1{fill:#204651;}
	.st2{fill:#73AEBC;}
	.st3{fill:#5E94A1;}
	.st4{fill:#548794;}
	.st5{fill:#7DBBC9;}
	.st6{fill:#3F6D79;}
</style>
<polygon class="st0" points="186.7036743,279.9150696 222.312851,259.3560791 293.5312195,300.4740601 293.5312195,310.5932922 
	257.9220276,331.1522217 186.7036743,290.0342712 "/>
<path class="st1" d="M190.8305359,292.9578247c0.0206146-0.0426331,0.0385132-0.0868835,0.0598602-0.1290588
	c0.0298615-0.0630188,0.0625458-0.1233521,0.0958099-0.183075c0.0314636-0.0582581,0.0670624-0.1136475,0.0999756-0.1708679
	c0.2172546-0.3347168,0.4916229-0.6101685,0.8288422-0.8048706c1.8959961-1.0946655,4.9700317,0.6801453,6.8660736,3.9641418
	c0.3585663,0.6210632,0.6488037,1.2515564,0.8717499,1.8732605l0.0002289-0.0002747l4.1004028,2.3673401
	c-1.1538239,2.2542419-3.3750458,3.8218994-5.9638519,3.9906921c-0.0953217,0.0061951-0.1905212,0.0126648-0.28685,0.0150146
	c-0.0582428,0.0014343-0.1149597,0.0090942-0.1735687,0.0090942c-1.0709991,0-2.0846405-0.246521-3.0002136-0.6781616
	c-2.5184631-1.1873779-4.2732391-3.8157959-4.2732391-6.8751831
	C190.0557556,295.1200256,190.3390808,293.9752808,190.8305359,292.9578247z"/>
<ellipse transform="matrix(0.8660254 -0.5 0.5 0.8660254 -123.5820847 136.3907471)" class="st0" cx="192.7175598" cy="298.8026733" rx="1.1659575" ry="2.0194974"/>
<path class="st1" d="M241.283783,322.0934143c0.0206146-0.0426636,0.0385132-0.0869141,0.0598602-0.1290588
	c0.0298615-0.0630493,0.0625458-0.1233826,0.0958099-0.1831055c0.0314636-0.0582275,0.0670624-0.1136169,0.0999756-0.1708679
	c0.2172546-0.3347168,0.4916229-0.6101685,0.8288422-0.8048401c1.8959961-1.0946655,4.9700317,0.6801453,6.8660736,3.9641113
	c0.3585663,0.6210632,0.6488037,1.2515869,0.8717499,1.8732605l0.0002289-0.0002441l4.1004028,2.3673096
	c-1.1538239,2.2542725-3.3750458,3.8218994-5.9638519,3.9906921c-0.0953217,0.0062256-0.1905212,0.0126953-0.28685,0.0150452
	c-0.0582428,0.0014343-0.1149597,0.0090942-0.1735687,0.0090942c-1.0710144,0-2.0846405-0.246521-3.0002136-0.6781616
	c-2.5184631-1.1873779-4.2732391-3.8158264-4.2732391-6.8751831
	C240.5090027,324.2556152,240.7923279,323.1108704,241.283783,322.0934143z"/>
<ellipse transform="matrix(0.8660254 -0.5 0.5 0.8660254 -131.381012 165.51828)" class="st0" cx="243.1708069" cy="327.9194336" rx="1.1659575" ry="2.0194974"/>
<polygon class="st2" points="293.5312195,306.2133179 293.5312195,300.4740601 222.312851,259.3561096 186.7036743,279.9150696 
	186.7036743,285.6543579 257.9220276,326.7723083 "/>
<path class="st3" d="M293.5312195,300.4740601v-2.6757507c0-2.4513245-1.3077698-4.7164612-3.4306946-5.9421387
	l-7.1501465-4.1281433l-10.5808105,6.1088562v6.5757751l10.5808105,6.1088562L293.5312195,300.4740601z"/>
<path class="st4" d="M282.5343323,306.8465881l0.1709595-2.6702576c0.1566467-2.4463501-1.0037231-4.7904053-3.0440063-6.149231
	l-6.8756409-4.5152893l-0.4201965,6.5623474L282.5343323,306.8465881z"/>
<polygon class="st5" points="257.9220276,320.8252869 293.5312195,300.4740601 293.5312195,306.2133179 257.9220276,326.7723083 "/>
<polygon class="st4" points="186.7036743,279.9150696 186.7036743,285.6543579 257.9220276,326.7723083 257.9220276,320.8252869 "/>
<polygon class="st6" points="257.9220276,326.7723083 257.9220276,331.1522217 293.5312195,310.5932922 293.5312195,306.2133179 "/>
</svg>
