<?xml version="1.0" encoding="utf-8"?>
<!-- Generator: Adobe Illustrator 22.0.0, SVG Export Plug-In . SVG Version: 6.00 Build 0)  -->
<svg version="1.1" id="Conveyor" xmlns="http://www.w3.org/2000/svg" xmlns:xlink="http://www.w3.org/1999/xlink" x="0px" y="0px"
	 viewBox="0 0 480 438.8" style="enable-background:new 0 0 480 438.8;" xml:space="preserve">
<style type="text/css">
	.st0{fill:#808080;}
	.st1{fill:#646464;}
	.st2{fill:#548794;}
	.st3{fill:#7DBBC9;}
	.st4{fill:#73AEBC;}
	.st5{fill:#3F6D79;}
	.st6{fill:#5E94A1;}
	.st7{fill:#666666;}
	.st8{fill:#4D4D4D;}
	.st9{fill:#3C3C3C;}
	.st10{fill:#204651;}
	.st11{fill:#35606C;}
</style>
<polygon class="st0" points="112.5,226.6 112.5,249.7 114.9,248.3 114.9,225.2 "/>
<polygon class="st1" points="112.5,226.6 112.5,249.7 110,248.3 110,225.2 "/>
<polygon class="st0" points="140,242.5 140,265.6 142.5,264.1 142.5,241.1 "/>
<polygon class="st1" points="140,242.5 140,265.6 137.5,264.1 137.5,241.1 "/>
<polygon class="st0" points="200,207.8 200,231 202.5,229.5 202.5,206.4 "/>
<polygon class="st1" points="200,207.8 200,231 197.5,229.5 197.5,206.4 "/>
<polygon class="st2" points="240,207.9 200,184.8 200,115.5 240,138.6 "/>
<polygon class="st3" points="240,138.6 280,115.5 280,184.8 240,207.9 "/>
<polygon class="st4" points="280,115.5 240,92.4 200,115.5 240,138.6 "/>
<polygon class="st5" points="200,171.7 240,194.8 240,207.9 200,184.8 "/>
<polygon class="st6" points="240,194.8 280,171.7 280,184.8 240,207.9 "/>
<polygon class="st7" points="225.1,153 234.9,158.7 234.9,181.8 137.5,238.2 107.5,220.9 "/>
<polygon class="st8" points="137.5,238.2 137.5,243.9 234.9,187.7 234.9,181.8 "/>
<path class="st9" d="M135.1,242.5c0-1.6,1.1-3.5,2.5-4.3s2.5-0.2,2.5,1.4s-1.1,3.5-2.5,4.3C136.2,244.7,135.1,244.1,135.1,242.5z"/>
<path class="st7" d="M105.1,225.2c0-1.6,1.1-3.5,2.5-4.3s2.5-0.2,2.5,1.4s-1.1,3.5-2.5,4.3C106.2,227.4,105.1,226.8,105.1,225.2z"/>
<polygon class="st7" points="105.8,226.8 135.6,243.9 137.5,238.2 107.5,220.9 "/>
<path class="st8" d="M135.1,242.5c0-1.6,1.1-3.5,2.5-4.3s2.5-0.2,2.5,1.4s-1.1,3.5-2.5,4.3C136.2,244.7,135.1,244.1,135.1,242.5z"/>
<polygon class="st10" points="205.1,164.6 225.1,153 205.1,141.5 "/>
<polygon class="st8" points="217.1,157.7 234.9,168 234.9,158.7 225.1,153 "/>
<polygon class="st1" points="367.5,226.6 367.5,249.7 365,248.3 365,225.2 "/>
<polygon class="st0" points="367.5,226.6 367.5,249.7 370,248.3 370,225.2 "/>
<polygon class="st1" points="340,242.5 340,265.6 337.5,264.1 337.5,241.1 "/>
<polygon class="st0" points="340,242.5 340,265.6 342.5,264.1 342.5,241.1 "/>
<polygon class="st1" points="280,207.8 280,231 277.5,229.5 277.5,206.4 "/>
<polygon class="st0" points="280,207.8 280,231 282.5,229.5 282.5,206.4 "/>
<polygon class="st7" points="254.9,153 245.1,158.7 245.1,181.8 342.5,238.2 372.5,220.9 "/>
<polygon class="st8" points="342.5,238.2 342.5,243.9 245.1,187.7 245.1,181.8 "/>
<path class="st9" d="M344.9,242.5c0-1.6-1.1-3.5-2.5-4.3c-1.4-0.8-2.5-0.2-2.5,1.4s1.1,3.5,2.5,4.3
	C343.8,244.7,344.9,244.1,344.9,242.5z"/>
<path class="st7" d="M374.9,225.2c0-1.6-1.1-3.5-2.5-4.3c-1.4-0.8-2.5-0.2-2.5,1.4s1.1,3.5,2.5,4.3
	C373.8,227.4,374.9,226.8,374.9,225.2z"/>
<polygon class="st7" points="374.2,226.8 344.4,243.9 342.5,238.2 372.5,220.9 "/>
<path class="st8" d="M344.9,242.5c0-1.6-1.1-3.5-2.5-4.3c-1.4-0.8-2.5-0.2-2.5,1.4s1.1,3.5,2.5,4.3
	C343.8,244.7,344.9,244.1,344.9,242.5z"/>
<polygon class="st11" points="274.9,164.6 254.9,153 274.9,141.5 "/>
<polygon class="st8" points="262.9,157.7 245.1,168 245.1,158.7 254.9,153 "/>
<polygon class="st6" points="253.7,138.5 253.8,146.5 266.2,139.3 266.2,131.3 "/>
<polygon class="st3" points="255.1,139.3 255.1,140.9 256.5,140.1 256.5,138.5 "/>
<polygon class="st3" points="255.1,142.5 255.1,144.1 256.5,143.3 256.5,141.7 "/>
<polygon class="st3" points="257.9,137.7 257.9,139.3 259.3,138.5 259.3,136.9 "/>
<polygon class="st3" points="257.9,140.9 257.9,142.5 259.3,141.7 259.3,140.1 "/>
<polygon class="st3" points="260.7,136.1 260.7,137.7 262.1,136.9 262.1,135.3 "/>
<polygon class="st3" points="260.7,139.3 260.7,140.9 262.1,140.1 262.1,138.5 "/>
<polygon class="st3" points="263.5,134.5 263.5,136.1 264.8,135.3 264.8,133.7 "/>
<polygon class="st3" points="263.5,137.7 263.5,139.3 264.8,138.5 264.8,136.9 "/>
</svg>
