<?xml version="1.0" encoding="utf-8"?>
<!-- Generator: Adobe Illustrator 22.0.0, SVG Export Plug-In . SVG Version: 6.00 Build 0)  -->
<svg version="1.1" id="Paletts_x5F_4x" xmlns="http://www.w3.org/2000/svg" xmlns:xlink="http://www.w3.org/1999/xlink" x="0px"
	 y="0px" viewBox="0 0 479.9954834 438.8007813" style="enable-background:new 0 0 479.9954834 438.8007813;" xml:space="preserve">
<style type="text/css">
	.st0{fill:#497A86;}
	.st1{fill:#5E94A1;}
	.st2{fill:#3F6D79;}
	.st3{fill:#35606C;}
	.st4{fill:#89786D;}
	.st5{fill:#C1A791;}
	.st6{fill:#9B8779;}
	.st7{fill:#AA9383;}
	.st8{fill:#CEB399;}
</style>
<polygon class="st0" points="239.9924469,151.670105 179.9924469,186.3111267 239.9924469,220.9521332 299.9924622,186.3111267 "/>
<polygon class="st1" points="299.9924622,191.3111267 299.9924622,196.3111267 294.9924622,199.197876 294.9924622,194.197876 "/>
<polygon class="st1" points="239.9924469,225.9521332 239.9924469,230.9521332 244.9924469,228.0653839 244.9924469,223.0653839 "/>
<polygon class="st2" points="294.9924622,199.197876 290.662323,196.697876 294.9924622,194.197876 "/>
<polygon class="st1" points="272.3530579,207.2686157 272.3530579,212.2686157 267.3530579,215.155365 267.3530579,210.155365 "/>
<polygon class="st2" points="267.3530579,215.155365 263.0229492,212.655365 267.3530579,210.155365 "/>
<polygon class="st1" points="299.9924622,186.3111267 299.9924622,191.3111267 239.9924469,225.9521332 239.9924469,220.9521332 "/>
<polygon class="st2" points="239.9924469,225.9521332 239.9924469,220.9521332 179.9924469,186.3111267 179.9924469,191.3111267 "/>
<polygon class="st2" points="179.9924469,191.3111267 179.9924469,196.3111267 184.9924469,199.197876 184.9924469,194.197876 "/>
<polygon class="st2" points="239.9924469,225.9521332 239.9924469,230.9521332 234.9924469,228.0653839 234.9924469,223.0653839 "/>
<polygon class="st3" points="184.9924469,199.197876 189.3225708,196.697876 184.9924469,194.197876 "/>
<polygon class="st4" points="239.986145,154.5597839 222.8733673,144.6702271 222.8841553,164.4332886 239.9915314,174.3102264 "/>
<polygon class="st5" points="239.986145,154.5597839 257.0989075,144.6793823 239.9915314,134.8024292 222.8733673,144.6702271 "/>
<polygon class="st6" points="257.0989075,144.6793823 239.986145,154.5597839 239.9915314,174.3102264 257.0989075,164.4332886 "/>
<polygon class="st4" points="221.0393677,165.498703 203.9266052,155.6091461 203.9373932,175.3722076 221.0447693,185.2491455 "/>
<polygon class="st5" points="221.0393677,165.498703 238.1521454,155.6183014 221.0447693,145.7413483 203.9266052,155.6091461 "/>
<polygon class="st6" points="238.1521454,155.6183014 221.0393677,165.498703 221.0447693,185.2491455 238.1521454,175.3722076 "/>
<polygon class="st7" points="202.0926056,176.4376221 184.9798279,166.5480804 184.9906158,186.3111267 202.0980072,196.1880798 "/>
<polygon class="st5" points="202.0926056,176.4376221 219.2053833,166.5572205 202.0980072,156.6802673 184.9798279,166.5480804 "/>
<polygon class="st6" points="219.2053833,166.5572205 202.0926056,176.4376221 202.0980072,196.1880798 219.2053833,186.3111267 "/>
<polygon class="st4" points="258.9329224,165.498703 241.8201294,155.6091461 241.8309174,175.3722076 258.9382935,185.2491455 "/>
<polygon class="st5" points="258.9329224,165.498703 276.0456848,155.6183014 258.9382935,145.7413483 241.8201294,155.6091461 "/>
<polygon class="st6" points="276.0456848,155.6183014 258.9329224,165.498703 258.9382935,185.2491455 276.0456848,175.3722076 "/>
<polygon class="st4" points="277.8796692,176.4376221 260.7669067,166.5480804 260.7776794,186.3111267 277.8850708,196.1880798 "/>
<polygon class="st5" points="277.8796692,176.4376221 294.9924622,166.5572205 277.8850708,156.6802673 260.7669067,166.5480804 "/>
<polygon class="st8" points="294.9924622,166.5572205 277.8796692,176.4376221 277.8850708,196.1880798 294.9924622,186.3111267 "/>
<polygon class="st4" points="239.986145,176.4376221 222.8733673,166.5480804 222.8841553,186.3111267 239.9915314,196.1880798 "/>
<polygon class="st5" points="239.986145,176.4376221 257.0989075,166.5572205 239.9915314,156.6802673 222.8733673,166.5480804 "/>
<polygon class="st6" points="257.0989075,166.5572205 239.986145,176.4376221 239.9915314,196.1880798 257.0989075,186.3111267 "/>
<polygon class="st4" points="258.9329224,187.3765411 241.8201294,177.4869995 241.8309174,197.2500458 258.9382935,207.1269989 "/>
<polygon class="st5" points="258.9329224,187.3765411 276.0456848,177.4961395 258.9382935,167.6192017 241.8201294,177.4869995 "/>
<polygon class="st8" points="276.0456848,177.4961395 258.9329224,187.3765411 258.9382935,207.1269989 276.0456848,197.2500458 "/>
<polygon class="st7" points="221.0393677,187.3765411 203.9266052,177.4869995 203.9373932,197.2500458 221.0447693,207.1269989 "/>
<polygon class="st5" points="221.0393677,187.3765411 238.1521454,177.4961395 221.0447693,167.6192017 203.9266052,177.4869995 "/>
<polygon class="st6" points="238.1521454,177.4961395 221.0393677,187.3765411 221.0447693,207.1269989 238.1521454,197.2500458 "/>
<polygon class="st7" points="239.986145,198.3154602 222.8733673,188.4259186 222.8841553,208.1889648 239.9915314,218.065918 "/>
<polygon class="st5" points="239.986145,198.3154602 257.0989075,188.4350586 239.9915314,178.5581207 222.8733673,188.4259186 "/>
<polygon class="st8" points="257.0989075,188.4350586 239.986145,198.3154602 239.9915314,218.065918 257.0989075,208.1889648 "/>
<polygon class="st2" points="207.6318207,207.2686157 207.6318207,212.2686157 212.6318207,215.155365 212.6318207,210.155365 "/>
<polygon class="st3" points="212.6318207,215.155365 216.9619446,212.655365 212.6318207,210.155365 "/>
<polygon class="st4" points="239.986145,134.2499542 222.8733673,124.3603973 222.8841553,144.1234436 239.9915314,154.0003967 "/>
<polygon class="st5" points="239.986145,134.2499542 257.0989075,124.3695526 239.9915314,114.4925995 222.8733673,124.3603973 "/>
<polygon class="st6" points="257.0989075,124.3695526 239.986145,134.2499542 239.9915314,154.0003967 257.0989075,144.1234436 "/>
<polygon class="st4" points="221.0393677,145.1888733 203.9266052,135.2993164 203.9373932,155.0623779 221.0447693,164.9393158 "/>
<polygon class="st5" points="221.0393677,145.1888733 238.1521454,135.3084717 221.0447693,125.4315186 203.9266052,135.2993164 "/>
<polygon class="st6" points="238.1521454,135.3084717 221.0393677,145.1888733 221.0447693,164.9393158 238.1521454,155.0623779 "/>
<polygon class="st7" points="202.0926056,156.1277924 184.9798279,146.2382355 184.9906158,166.001297 202.0980072,175.8782349 "/>
<polygon class="st5" points="202.0926056,156.1277924 219.2053833,146.2473907 202.0980072,136.3704376 184.9798279,146.2382355 "/>
<polygon class="st6" points="219.2053833,146.2473907 202.0926056,156.1277924 202.0980072,175.8782349 219.2053833,166.001297 "/>
<polygon class="st4" points="258.9329224,145.1888733 241.8201294,135.2993164 241.8309174,155.0623779 258.9382935,164.9393158 "/>
<polygon class="st5" points="258.9329224,145.1888733 276.0456848,135.3084717 258.9382935,125.4315186 241.8201294,135.2993164 "/>
<polygon class="st6" points="276.0456848,135.3084717 258.9329224,145.1888733 258.9382935,164.9393158 276.0456848,155.0623779 "/>
<polygon class="st4" points="277.8796692,156.1277924 260.7669067,146.2382355 260.7776794,166.001297 277.8850708,175.8782349 "/>
<polygon class="st5" points="277.8796692,156.1277924 294.9924622,146.2473907 277.8850708,136.3704376 260.7669067,146.2382355 "/>
<polygon class="st8" points="294.9924622,146.2473907 277.8796692,156.1277924 277.8850708,175.8782349 294.9924622,166.001297 "/>
<polygon class="st4" points="239.986145,156.1277924 222.8733673,146.2382355 222.8841553,166.001297 239.9915314,175.8782349 "/>
<polygon class="st5" points="239.986145,156.1277924 257.0989075,146.2473907 239.9915314,136.3704376 222.8733673,146.2382355 "/>
<polygon class="st6" points="257.0989075,146.2473907 239.986145,156.1277924 239.9915314,175.8782349 257.0989075,166.001297 "/>
<polygon class="st4" points="258.9329224,167.0667114 241.8201294,157.1771545 241.8309174,176.9402161 258.9382935,186.8171692 "/>
<polygon class="st5" points="258.9329224,167.0667114 276.0456848,157.1863098 258.9382935,147.3093567 241.8201294,157.1771545 "/>
<polygon class="st8" points="276.0456848,157.1863098 258.9329224,167.0667114 258.9382935,186.8171692 276.0456848,176.9402161 "/>
<polygon class="st7" points="221.0393677,167.0667114 203.9266052,157.1771545 203.9373932,176.9402161 221.0447693,186.8171692 "/>
<polygon class="st5" points="221.0393677,167.0667114 238.1521454,157.1863098 221.0447693,147.3093567 203.9266052,157.1771545 "/>
<polygon class="st6" points="238.1521454,157.1863098 221.0393677,167.0667114 221.0447693,186.8171692 238.1521454,176.9402161 "/>
<polygon class="st7" points="239.986145,178.0056305 222.8733673,168.1160889 222.8841553,187.8791351 239.9915314,197.7560883 "/>
<polygon class="st5" points="239.986145,178.0056305 257.0989075,168.1252289 239.9915314,158.248291 222.8733673,168.1160889 "/>
<polygon class="st8" points="257.0989075,168.1252289 239.986145,178.0056305 239.9915314,197.7560883 257.0989075,187.8791351 "/>
<polygon class="st4" points="239.986145,113.9808578 222.8733673,104.0913086 222.8841553,123.8543625 239.9915314,133.731308 "/>
<polygon class="st5" points="239.986145,113.9808578 257.0989075,104.1004639 239.9915314,94.2235107 222.8733673,104.0913086 "/>
<polygon class="st6" points="257.0989075,104.1004639 239.986145,113.9808578 239.9915314,133.731308 257.0989075,123.8543625 "/>
<polygon class="st4" points="221.0393677,124.9197845 203.9266052,115.0302277 203.9373932,134.7932892 221.0447693,144.6702271 "/>
<polygon class="st5" points="221.0393677,124.9197845 238.1521454,115.0393829 221.0447693,105.1624298 203.9266052,115.0302277 "/>
<polygon class="st6" points="238.1521454,115.0393829 221.0393677,124.9197845 221.0447693,144.6702271 238.1521454,134.7932892 "/>
<polygon class="st7" points="202.0926056,135.8587036 184.9798279,125.9691544 184.9906158,145.7322083 202.0980072,155.6091461 "/>
<polygon class="st5" points="202.0926056,135.8587036 219.2053833,125.978302 202.0980072,116.1013565 184.9798279,125.9691544 "/>
<polygon class="st6" points="219.2053833,125.978302 202.0926056,135.8587036 202.0980072,155.6091461 219.2053833,145.7322083 "/>
<polygon class="st4" points="258.9329224,124.9197845 241.8201294,115.0302277 241.8309174,134.7932892 258.9382935,144.6702271 "/>
<polygon class="st5" points="258.9329224,124.9197845 276.0456848,115.0393829 258.9382935,105.1624298 241.8201294,115.0302277 "/>
<polygon class="st6" points="276.0456848,115.0393829 258.9329224,124.9197845 258.9382935,144.6702271 276.0456848,134.7932892 "/>
<polygon class="st4" points="277.8796692,135.8587036 260.7669067,125.9691544 260.7776794,145.7322083 277.8850708,155.6091461 "/>
<polygon class="st5" points="277.8796692,135.8587036 294.9924622,125.978302 277.8850708,116.1013565 260.7669067,125.9691544 "/>
<polygon class="st8" points="294.9924622,125.978302 277.8796692,135.8587036 277.8850708,155.6091461 294.9924622,145.7322083 "/>
<polygon class="st4" points="239.986145,135.8587036 222.8733673,125.9691544 222.8841553,145.7322083 239.9915314,155.6091461 "/>
<polygon class="st5" points="239.986145,135.8587036 257.0989075,125.978302 239.9915314,116.1013565 222.8733673,125.9691544 "/>
<polygon class="st6" points="257.0989075,125.978302 239.986145,135.8587036 239.9915314,155.6091461 257.0989075,145.7322083 "/>
<polygon class="st4" points="258.9329224,146.7976227 241.8201294,136.9080658 241.8309174,156.6711273 258.9382935,166.5480804 "/>
<polygon class="st5" points="258.9329224,146.7976227 276.0456848,136.9172211 258.9382935,127.0402756 241.8201294,136.9080658 "/>
<polygon class="st8" points="276.0456848,136.9172211 258.9329224,146.7976227 258.9382935,166.5480804 276.0456848,156.6711273 "/>
<polygon class="st7" points="221.0393677,146.7976227 203.9266052,136.9080658 203.9373932,156.6711273 221.0447693,166.5480804 "/>
<polygon class="st5" points="221.0393677,146.7976227 238.1521454,136.9172211 221.0447693,127.0402756 203.9266052,136.9080658 "/>
<polygon class="st6" points="238.1521454,136.9172211 221.0393677,146.7976227 221.0447693,166.5480804 238.1521454,156.6711273 "/>
<polygon class="st7" points="239.986145,157.7365417 222.8733673,147.8470001 222.8841553,167.6100464 239.9915314,177.4869995 "/>
<polygon class="st5" points="239.986145,157.7365417 257.0989075,147.8561401 239.9915314,137.9792023 222.8733673,147.8470001 "/>
<polygon class="st8" points="257.0989075,147.8561401 239.986145,157.7365417 239.9915314,177.4869995 257.0989075,167.6100464 "/>
<polygon class="st0" points="239.9924469,151.670105 179.9924469,186.3111267 239.9924469,220.9521332 299.9924622,186.3111267 "/>
<polygon class="st1" points="299.9924622,191.3111267 299.9924622,196.3111267 294.9924622,199.197876 294.9924622,194.197876 "/>
<polygon class="st1" points="239.9924469,225.9521332 239.9924469,230.9521332 244.9924469,228.0653839 244.9924469,223.0653839 "/>
<polygon class="st2" points="294.9924622,199.197876 290.662323,196.697876 294.9924622,194.197876 "/>
<polygon class="st1" points="272.3530579,207.2686157 272.3530579,212.2686157 267.3530579,215.155365 267.3530579,210.155365 "/>
<polygon class="st2" points="267.3530579,215.155365 263.0229492,212.655365 267.3530579,210.155365 "/>
<polygon class="st1" points="299.9924622,186.3111267 299.9924622,191.3111267 239.9924469,225.9521332 239.9924469,220.9521332 "/>
<polygon class="st2" points="239.9924469,225.9521332 239.9924469,220.9521332 179.9924469,186.3111267 179.9924469,191.3111267 "/>
<polygon class="st2" points="179.9924469,191.3111267 179.9924469,196.3111267 184.9924469,199.197876 184.9924469,194.197876 "/>
<polygon class="st2" points="239.9924469,225.9521332 239.9924469,230.9521332 234.9924469,228.0653839 234.9924469,223.0653839 "/>
<polygon class="st3" points="184.9924469,199.197876 189.3225708,196.697876 184.9924469,194.197876 "/>
<polygon class="st4" points="239.986145,154.5597839 222.8733673,144.6702271 222.8841553,164.4332886 239.9915314,174.3102264 "/>
<polygon class="st5" points="239.986145,154.5597839 257.0989075,144.6793823 239.9915314,134.8024292 222.8733673,144.6702271 "/>
<polygon class="st6" points="257.0989075,144.6793823 239.986145,154.5597839 239.9915314,174.3102264 257.0989075,164.4332886 "/>
<polygon class="st4" points="221.0393677,165.498703 203.9266052,155.6091461 203.9373932,175.3722076 221.0447693,185.2491455 "/>
<polygon class="st5" points="221.0393677,165.498703 238.1521454,155.6183014 221.0447693,145.7413483 203.9266052,155.6091461 "/>
<polygon class="st6" points="238.1521454,155.6183014 221.0393677,165.498703 221.0447693,185.2491455 238.1521454,175.3722076 "/>
<polygon class="st7" points="202.0926056,176.4376221 184.9798279,166.5480804 184.9906158,186.3111267 202.0980072,196.1880798 "/>
<polygon class="st5" points="202.0926056,176.4376221 219.2053833,166.5572205 202.0980072,156.6802673 184.9798279,166.5480804 "/>
<polygon class="st6" points="219.2053833,166.5572205 202.0926056,176.4376221 202.0980072,196.1880798 219.2053833,186.3111267 "/>
<polygon class="st4" points="258.9329224,165.498703 241.8201294,155.6091461 241.8309174,175.3722076 258.9382935,185.2491455 "/>
<polygon class="st5" points="258.9329224,165.498703 276.0456848,155.6183014 258.9382935,145.7413483 241.8201294,155.6091461 "/>
<polygon class="st6" points="276.0456848,155.6183014 258.9329224,165.498703 258.9382935,185.2491455 276.0456848,175.3722076 "/>
<polygon class="st4" points="277.8796692,176.4376221 260.7669067,166.5480804 260.7776794,186.3111267 277.8850708,196.1880798 "/>
<polygon class="st5" points="277.8796692,176.4376221 294.9924622,166.5572205 277.8850708,156.6802673 260.7669067,166.5480804 "/>
<polygon class="st8" points="294.9924622,166.5572205 277.8796692,176.4376221 277.8850708,196.1880798 294.9924622,186.3111267 "/>
<polygon class="st4" points="239.986145,176.4376221 222.8733673,166.5480804 222.8841553,186.3111267 239.9915314,196.1880798 "/>
<polygon class="st5" points="239.986145,176.4376221 257.0989075,166.5572205 239.9915314,156.6802673 222.8733673,166.5480804 "/>
<polygon class="st6" points="257.0989075,166.5572205 239.986145,176.4376221 239.9915314,196.1880798 257.0989075,186.3111267 "/>
<polygon class="st4" points="258.9329224,187.3765411 241.8201294,177.4869995 241.8309174,197.2500458 258.9382935,207.1269989 "/>
<polygon class="st5" points="258.9329224,187.3765411 276.0456848,177.4961395 258.9382935,167.6192017 241.8201294,177.4869995 "/>
<polygon class="st8" points="276.0456848,177.4961395 258.9329224,187.3765411 258.9382935,207.1269989 276.0456848,197.2500458 "/>
<polygon class="st7" points="221.0393677,187.3765411 203.9266052,177.4869995 203.9373932,197.2500458 221.0447693,207.1269989 "/>
<polygon class="st5" points="221.0393677,187.3765411 238.1521454,177.4961395 221.0447693,167.6192017 203.9266052,177.4869995 "/>
<polygon class="st6" points="238.1521454,177.4961395 221.0393677,187.3765411 221.0447693,207.1269989 238.1521454,197.2500458 "/>
<polygon class="st7" points="239.986145,198.3154602 222.8733673,188.4259186 222.8841553,208.1889648 239.9915314,218.065918 "/>
<polygon class="st5" points="239.986145,198.3154602 257.0989075,188.4350586 239.9915314,178.5581207 222.8733673,188.4259186 "/>
<polygon class="st8" points="257.0989075,188.4350586 239.986145,198.3154602 239.9915314,218.065918 257.0989075,208.1889648 "/>
<polygon class="st2" points="207.6318207,207.2686157 207.6318207,212.2686157 212.6318207,215.155365 212.6318207,210.155365 "/>
<polygon class="st3" points="212.6318207,215.155365 216.9619446,212.655365 212.6318207,210.155365 "/>
<polygon class="st4" points="239.986145,134.2499542 222.8733673,124.3603973 222.8841553,144.1234436 239.9915314,154.0003967 "/>
<polygon class="st5" points="239.986145,134.2499542 257.0989075,124.3695526 239.9915314,114.4925995 222.8733673,124.3603973 "/>
<polygon class="st6" points="257.0989075,124.3695526 239.986145,134.2499542 239.9915314,154.0003967 257.0989075,144.1234436 "/>
<polygon class="st4" points="221.0393677,145.1888733 203.9266052,135.2993164 203.9373932,155.0623779 221.0447693,164.9393158 "/>
<polygon class="st5" points="221.0393677,145.1888733 238.1521454,135.3084717 221.0447693,125.4315186 203.9266052,135.2993164 "/>
<polygon class="st6" points="238.1521454,135.3084717 221.0393677,145.1888733 221.0447693,164.9393158 238.1521454,155.0623779 "/>
<polygon class="st7" points="202.0926056,156.1277924 184.9798279,146.2382355 184.9906158,166.001297 202.0980072,175.8782349 "/>
<polygon class="st5" points="202.0926056,156.1277924 219.2053833,146.2473907 202.0980072,136.3704376 184.9798279,146.2382355 "/>
<polygon class="st6" points="219.2053833,146.2473907 202.0926056,156.1277924 202.0980072,175.8782349 219.2053833,166.001297 "/>
<polygon class="st4" points="258.9329224,145.1888733 241.8201294,135.2993164 241.8309174,155.0623779 258.9382935,164.9393158 "/>
<polygon class="st5" points="258.9329224,145.1888733 276.0456848,135.3084717 258.9382935,125.4315186 241.8201294,135.2993164 "/>
<polygon class="st6" points="276.0456848,135.3084717 258.9329224,145.1888733 258.9382935,164.9393158 276.0456848,155.0623779 "/>
<polygon class="st4" points="277.8796692,156.1277924 260.7669067,146.2382355 260.7776794,166.001297 277.8850708,175.8782349 "/>
<polygon class="st5" points="277.8796692,156.1277924 294.9924622,146.2473907 277.8850708,136.3704376 260.7669067,146.2382355 "/>
<polygon class="st8" points="294.9924622,146.2473907 277.8796692,156.1277924 277.8850708,175.8782349 294.9924622,166.001297 "/>
<polygon class="st4" points="239.986145,156.1277924 222.8733673,146.2382355 222.8841553,166.001297 239.9915314,175.8782349 "/>
<polygon class="st5" points="239.986145,156.1277924 257.0989075,146.2473907 239.9915314,136.3704376 222.8733673,146.2382355 "/>
<polygon class="st6" points="257.0989075,146.2473907 239.986145,156.1277924 239.9915314,175.8782349 257.0989075,166.001297 "/>
<polygon class="st4" points="258.9329224,167.0667114 241.8201294,157.1771545 241.8309174,176.9402161 258.9382935,186.8171692 "/>
<polygon class="st5" points="258.9329224,167.0667114 276.0456848,157.1863098 258.9382935,147.3093567 241.8201294,157.1771545 "/>
<polygon class="st8" points="276.0456848,157.1863098 258.9329224,167.0667114 258.9382935,186.8171692 276.0456848,176.9402161 "/>
<polygon class="st7" points="221.0393677,167.0667114 203.9266052,157.1771545 203.9373932,176.9402161 221.0447693,186.8171692 "/>
<polygon class="st5" points="221.0393677,167.0667114 238.1521454,157.1863098 221.0447693,147.3093567 203.9266052,157.1771545 "/>
<polygon class="st6" points="238.1521454,157.1863098 221.0393677,167.0667114 221.0447693,186.8171692 238.1521454,176.9402161 "/>
<polygon class="st7" points="239.986145,178.0056305 222.8733673,168.1160889 222.8841553,187.8791351 239.9915314,197.7560883 "/>
<polygon class="st5" points="239.986145,178.0056305 257.0989075,168.1252289 239.9915314,158.248291 222.8733673,168.1160889 "/>
<polygon class="st8" points="257.0989075,168.1252289 239.986145,178.0056305 239.9915314,197.7560883 257.0989075,187.8791351 "/>
<polygon class="st4" points="239.986145,113.9808578 222.8733673,104.0913086 222.8841553,123.8543625 239.9915314,133.731308 "/>
<polygon class="st5" points="239.986145,113.9808578 257.0989075,104.1004639 239.9915314,94.2235107 222.8733673,104.0913086 "/>
<polygon class="st6" points="257.0989075,104.1004639 239.986145,113.9808578 239.9915314,133.731308 257.0989075,123.8543625 "/>
<polygon class="st4" points="221.0393677,124.9197845 203.9266052,115.0302277 203.9373932,134.7932892 221.0447693,144.6702271 "/>
<polygon class="st5" points="221.0393677,124.9197845 238.1521454,115.0393829 221.0447693,105.1624298 203.9266052,115.0302277 "/>
<polygon class="st6" points="238.1521454,115.0393829 221.0393677,124.9197845 221.0447693,144.6702271 238.1521454,134.7932892 "/>
<polygon class="st7" points="202.0926056,135.8587036 184.9798279,125.9691544 184.9906158,145.7322083 202.0980072,155.6091461 "/>
<polygon class="st5" points="202.0926056,135.8587036 219.2053833,125.978302 202.0980072,116.1013565 184.9798279,125.9691544 "/>
<polygon class="st6" points="219.2053833,125.978302 202.0926056,135.8587036 202.0980072,155.6091461 219.2053833,145.7322083 "/>
<polygon class="st4" points="258.9329224,124.9197845 241.8201294,115.0302277 241.8309174,134.7932892 258.9382935,144.6702271 "/>
<polygon class="st5" points="258.9329224,124.9197845 276.0456848,115.0393829 258.9382935,105.1624298 241.8201294,115.0302277 "/>
<polygon class="st6" points="276.0456848,115.0393829 258.9329224,124.9197845 258.9382935,144.6702271 276.0456848,134.7932892 "/>
<polygon class="st4" points="277.8796692,135.8587036 260.7669067,125.9691544 260.7776794,145.7322083 277.8850708,155.6091461 "/>
<polygon class="st5" points="277.8796692,135.8587036 294.9924622,125.978302 277.8850708,116.1013565 260.7669067,125.9691544 "/>
<polygon class="st8" points="294.9924622,125.978302 277.8796692,135.8587036 277.8850708,155.6091461 294.9924622,145.7322083 "/>
<polygon class="st4" points="239.986145,135.8587036 222.8733673,125.9691544 222.8841553,145.7322083 239.9915314,155.6091461 "/>
<polygon class="st5" points="239.986145,135.8587036 257.0989075,125.978302 239.9915314,116.1013565 222.8733673,125.9691544 "/>
<polygon class="st6" points="257.0989075,125.978302 239.986145,135.8587036 239.9915314,155.6091461 257.0989075,145.7322083 "/>
<polygon class="st4" points="258.9329224,146.7976227 241.8201294,136.9080658 241.8309174,156.6711273 258.9382935,166.5480804 "/>
<polygon class="st5" points="258.9329224,146.7976227 276.0456848,136.9172211 258.9382935,127.0402756 241.8201294,136.9080658 "/>
<polygon class="st8" points="276.0456848,136.9172211 258.9329224,146.7976227 258.9382935,166.5480804 276.0456848,156.6711273 "/>
<polygon class="st7" points="221.0393677,146.7976227 203.9266052,136.9080658 203.9373932,156.6711273 221.0447693,166.5480804 "/>
<polygon class="st5" points="221.0393677,146.7976227 238.1521454,136.9172211 221.0447693,127.0402756 203.9266052,136.9080658 "/>
<polygon class="st6" points="238.1521454,136.9172211 221.0393677,146.7976227 221.0447693,166.5480804 238.1521454,156.6711273 "/>
<polygon class="st7" points="239.986145,157.7365417 222.8733673,147.8470001 222.8841553,167.6100464 239.9915314,177.4869995 "/>
<polygon class="st5" points="239.986145,157.7365417 257.0989075,147.8561401 239.9915314,137.9792023 222.8733673,147.8470001 "/>
<polygon class="st8" points="257.0989075,147.8561401 239.986145,157.7365417 239.9915314,177.4869995 257.0989075,167.6100464 "/>
<polygon class="st0" points="174.9924469,189.197876 114.9924469,223.8388977 174.9924469,258.4799194 234.9924469,223.8388977 "/>
<polygon class="st1" points="234.9924469,228.8388977 234.9924469,233.8388977 229.9924469,236.725647 229.9924469,231.725647 "/>
<polygon class="st1" points="174.9924469,263.4799194 174.9924469,268.4799194 179.9924469,265.5931702 179.9924469,260.5931702 "/>
<polygon class="st2" points="229.9924469,236.725647 225.662323,234.225647 229.9924469,231.725647 "/>
<polygon class="st1" points="207.3530731,244.7963867 207.3530731,249.7963867 202.3530731,252.683136 202.3530731,247.683136 "/>
<polygon class="st2" points="202.3530731,252.683136 198.0229492,250.183136 202.3530731,247.683136 "/>
<polygon class="st1" points="234.9924469,223.8388977 234.9924469,228.8388977 174.9924469,263.4799194 174.9924469,258.4799194 "/>
<polygon class="st2" points="174.9924469,263.4799194 174.9924469,258.4799194 114.9924469,223.8388977 114.9924469,228.8388977 "/>
<polygon class="st2" points="114.9924469,228.8388977 114.9924469,233.8388977 119.9924469,236.725647 119.9924469,231.725647 "/>
<polygon class="st2" points="174.9924469,263.4799194 174.9924469,268.4799194 169.9924469,265.5931702 169.9924469,260.5931702 "/>
<polygon class="st3" points="119.9924469,236.725647 124.3225784,234.225647 119.9924469,231.725647 "/>
<polygon class="st4" points="174.986145,192.0875549 157.8733673,182.197998 157.8841553,201.9610443 174.9915314,211.8379974 "/>
<polygon class="st5" points="174.986145,192.0875549 192.0989075,182.2071533 174.9915314,172.3302002 157.8733673,182.197998 "/>
<polygon class="st6" points="192.0989075,182.2071533 174.986145,192.0875549 174.9915314,211.8379974 192.0989075,201.9610443 "/>
<polygon class="st4" points="156.0393677,203.026474 138.9266052,193.1369171 138.9373932,212.8999634 156.0447693,222.7769165 "/>
<polygon class="st5" points="156.0393677,203.026474 173.1521454,193.1460724 156.0447693,183.2691193 138.9266052,193.1369171 "/>
<polygon class="st6" points="173.1521454,193.1460724 156.0393677,203.026474 156.0447693,222.7769165 173.1521454,212.8999634 "/>
<polygon class="st7" points="137.0926056,213.9653931 119.9798355,204.0758362 119.9906235,223.8388977 137.0980072,233.7158356 "/>
<polygon class="st5" points="137.0926056,213.9653931 154.2053833,204.0849915 137.0980072,194.2080383 119.9798355,204.0758362 "/>
<polygon class="st6" points="154.2053833,204.0849915 137.0926056,213.9653931 137.0980072,233.7158356 154.2053833,223.8388977 "/>
<polygon class="st4" points="193.9329071,203.026474 176.8201294,193.1369171 176.8309174,212.8999634 193.9383087,222.7769165 "/>
<polygon class="st5" points="193.9329071,203.026474 211.0456848,193.1460724 193.9383087,183.2691193 176.8201294,193.1369171 "/>
<polygon class="st6" points="211.0456848,193.1460724 193.9329071,203.026474 193.9383087,222.7769165 211.0456848,212.8999634 "/>
<polygon class="st4" points="212.8796692,213.9653931 195.7669067,204.0758362 195.7776947,223.8388977 212.8850708,233.7158356 "/>
<polygon class="st5" points="212.8796692,213.9653931 229.9924469,204.0849915 212.8850708,194.2080383 195.7669067,204.0758362 "/>
<polygon class="st8" points="229.9924469,204.0849915 212.8796692,213.9653931 212.8850708,233.7158356 229.9924469,223.8388977 "/>
<polygon class="st4" points="174.986145,213.9653931 157.8733673,204.0758362 157.8841553,223.8388977 174.9915314,233.7158356 "/>
<polygon class="st5" points="174.986145,213.9653931 192.0989075,204.0849915 174.9915314,194.2080383 157.8733673,204.0758362 "/>
<polygon class="st6" points="192.0989075,204.0849915 174.986145,213.9653931 174.9915314,233.7158356 192.0989075,223.8388977 "/>
<polygon class="st4" points="193.9329071,224.9043121 176.8201294,215.0147552 176.8309174,234.7778168 193.9383087,244.6547546 "/>
<polygon class="st5" points="193.9329071,224.9043121 211.0456848,215.0239105 193.9383087,205.1469574 176.8201294,215.0147552 "/>
<polygon class="st8" points="211.0456848,215.0239105 193.9329071,224.9043121 193.9383087,244.6547546 211.0456848,234.7778168 "/>
<polygon class="st7" points="156.0393677,224.9043121 138.9266052,215.0147552 138.9373932,234.7778168 156.0447693,244.6547546 "/>
<polygon class="st5" points="156.0393677,224.9043121 173.1521454,215.0239105 156.0447693,205.1469574 138.9266052,215.0147552 "/>
<polygon class="st6" points="173.1521454,215.0239105 156.0393677,224.9043121 156.0447693,244.6547546 173.1521454,234.7778168 "/>
<polygon class="st7" points="174.986145,235.8432312 157.8733673,225.9536896 157.8841553,245.7167358 174.9915314,255.593689 "/>
<polygon class="st5" points="174.986145,235.8432312 192.0989075,225.9628296 174.9915314,216.0858765 157.8733673,225.9536896 "/>
<polygon class="st8" points="192.0989075,225.9628296 174.986145,235.8432312 174.9915314,255.593689 192.0989075,245.7167358 "/>
<polygon class="st2" points="142.6318207,244.7963867 142.6318207,249.7963867 147.6318207,252.683136 147.6318207,247.683136 "/>
<polygon class="st3" points="147.6318207,252.683136 151.9619446,250.183136 147.6318207,247.683136 "/>
<polygon class="st4" points="174.986145,171.77771 157.8733673,161.8881683 157.8841553,181.6512146 174.9915314,191.5281677 "/>
<polygon class="st5" points="174.986145,171.77771 192.0989075,161.8973236 174.9915314,152.0203705 157.8733673,161.8881683 "/>
<polygon class="st6" points="192.0989075,161.8973236 174.986145,171.77771 174.9915314,191.5281677 192.0989075,181.6512146 "/>
<polygon class="st4" points="156.0393677,182.7166443 138.9266052,172.8270874 138.9373932,192.5901337 156.0447693,202.4670868 "/>
<polygon class="st5" points="156.0393677,182.7166443 173.1521454,172.8362427 156.0447693,162.9592896 138.9266052,172.8270874 "/>
<polygon class="st6" points="173.1521454,172.8362427 156.0393677,182.7166443 156.0447693,202.4670868 173.1521454,192.5901337 "/>
<polygon class="st7" points="137.0926056,193.6555634 119.9798355,183.7660065 119.9906235,203.5290527 137.0980072,213.4060059 "/>
<polygon class="st5" points="137.0926056,193.6555634 154.2053833,183.7751617 137.0980072,173.8982086 119.9798355,183.7660065 "/>
<polygon class="st6" points="154.2053833,183.7751617 137.0926056,193.6555634 137.0980072,213.4060059 154.2053833,203.5290527 "/>
<polygon class="st4" points="193.9329071,182.7166443 176.8201294,172.8270874 176.8309174,192.5901337 193.9383087,202.4670868 "/>
<polygon class="st5" points="193.9329071,182.7166443 211.0456848,172.8362427 193.9383087,162.9592896 176.8201294,172.8270874 "/>
<polygon class="st6" points="211.0456848,172.8362427 193.9329071,182.7166443 193.9383087,202.4670868 211.0456848,192.5901337 "/>
<polygon class="st4" points="212.8796692,193.6555634 195.7669067,183.7660065 195.7776947,203.5290527 212.8850708,213.4060059 "/>
<polygon class="st5" points="212.8796692,193.6555634 229.9924469,183.7751617 212.8850708,173.8982086 195.7669067,183.7660065 "/>
<polygon class="st8" points="229.9924469,183.7751617 212.8796692,193.6555634 212.8850708,213.4060059 229.9924469,203.5290527 "/>
<polygon class="st4" points="174.986145,193.6555634 157.8733673,183.7660065 157.8841553,203.5290527 174.9915314,213.4060059 "/>
<polygon class="st5" points="174.986145,193.6555634 192.0989075,183.7751617 174.9915314,173.8982086 157.8733673,183.7660065 "/>
<polygon class="st6" points="192.0989075,183.7751617 174.986145,193.6555634 174.9915314,213.4060059 192.0989075,203.5290527 "/>
<polygon class="st4" points="193.9329071,204.5944824 176.8201294,194.7049255 176.8309174,214.4679871 193.9383087,224.3449249 "/>
<polygon class="st5" points="193.9329071,204.5944824 211.0456848,194.7140808 193.9383087,184.8371277 176.8201294,194.7049255 "/>
<polygon class="st8" points="211.0456848,194.7140808 193.9329071,204.5944824 193.9383087,224.3449249 211.0456848,214.4679871 "/>
<polygon class="st7" points="156.0393677,204.5944824 138.9266052,194.7049255 138.9373932,214.4679871 156.0447693,224.3449249 "/>
<polygon class="st5" points="156.0393677,204.5944824 173.1521454,194.7140808 156.0447693,184.8371277 138.9266052,194.7049255 "/>
<polygon class="st6" points="173.1521454,194.7140808 156.0393677,204.5944824 156.0447693,224.3449249 173.1521454,214.4679871 "/>
<polygon class="st7" points="174.986145,215.5334015 157.8733673,205.6438446 157.8841553,225.4069061 174.9915314,235.283844 "/>
<polygon class="st5" points="174.986145,215.5334015 192.0989075,205.6529999 174.9915314,195.7760468 157.8733673,205.6438446 "/>
<polygon class="st8" points="192.0989075,205.6529999 174.986145,215.5334015 174.9915314,235.283844 192.0989075,225.4069061 "/>
<polygon class="st4" points="174.986145,151.5086212 157.8733673,141.6190796 157.8841553,161.3821259 174.9915314,171.259079 "/>
<polygon class="st5" points="174.986145,151.5086212 192.0989075,141.6282349 174.9915314,131.7512817 157.8733673,141.6190796 "/>
<polygon class="st6" points="192.0989075,141.6282349 174.986145,151.5086212 174.9915314,171.259079 192.0989075,161.3821259 "/>
<polygon class="st4" points="156.0393677,162.4475555 138.9266052,152.5579987 138.9373932,172.3210449 156.0447693,182.197998 "/>
<polygon class="st5" points="156.0393677,162.4475555 173.1521454,152.5671539 156.0447693,142.6902008 138.9266052,152.5579987 "/>
<polygon class="st6" points="173.1521454,152.5671539 156.0393677,162.4475555 156.0447693,182.197998 173.1521454,172.3210449 "/>
<polygon class="st7" points="137.0926056,173.3864746 119.9798355,163.4969177 119.9906235,183.259964 137.0980072,193.1369171 "/>
<polygon class="st5" points="137.0926056,173.3864746 154.2053833,163.506073 137.0980072,153.6291199 119.9798355,163.4969177 "/>
<polygon class="st6" points="154.2053833,163.506073 137.0926056,173.3864746 137.0980072,193.1369171 154.2053833,183.259964 "/>
<polygon class="st4" points="193.9329071,162.4475555 176.8201294,152.5579987 176.8309174,172.3210449 193.9383087,182.197998 "/>
<polygon class="st5" points="193.9329071,162.4475555 211.0456848,152.5671539 193.9383087,142.6902008 176.8201294,152.5579987 "/>
<polygon class="st6" points="211.0456848,152.5671539 193.9329071,162.4475555 193.9383087,182.197998 211.0456848,172.3210449 "/>
<polygon class="st4" points="212.8796692,173.3864746 195.7669067,163.4969177 195.7776947,183.259964 212.8850708,193.1369171 "/>
<polygon class="st5" points="212.8796692,173.3864746 229.9924469,163.506073 212.8850708,153.6291199 195.7669067,163.4969177 "/>
<polygon class="st8" points="229.9924469,163.506073 212.8796692,173.3864746 212.8850708,193.1369171 229.9924469,183.259964 "/>
<polygon class="st4" points="174.986145,173.3864746 157.8733673,163.4969177 157.8841553,183.259964 174.9915314,193.1369171 "/>
<polygon class="st5" points="174.986145,173.3864746 192.0989075,163.506073 174.9915314,153.6291199 157.8733673,163.4969177 "/>
<polygon class="st6" points="192.0989075,163.506073 174.986145,173.3864746 174.9915314,193.1369171 192.0989075,183.259964 "/>
<polygon class="st4" points="193.9329071,184.3253937 176.8201294,174.4358368 176.8309174,194.1988983 193.9383087,204.0758362 "/>
<polygon class="st5" points="193.9329071,184.3253937 211.0456848,174.4449921 193.9383087,164.5680389 176.8201294,174.4358368 "/>
<polygon class="st8" points="211.0456848,174.4449921 193.9329071,184.3253937 193.9383087,204.0758362 211.0456848,194.1988983 "/>
<polygon class="st7" points="156.0393677,184.3253937 138.9266052,174.4358368 138.9373932,194.1988983 156.0447693,204.0758362 "/>
<polygon class="st5" points="156.0393677,184.3253937 173.1521454,174.4449921 156.0447693,164.5680389 138.9266052,174.4358368 "/>
<polygon class="st6" points="173.1521454,174.4449921 156.0393677,184.3253937 156.0447693,204.0758362 173.1521454,194.1988983 "/>
<polygon class="st7" points="174.986145,195.2643127 157.8733673,185.3747559 157.8841553,205.1378174 174.9915314,215.0147552 "/>
<polygon class="st5" points="174.986145,195.2643127 192.0989075,185.3839111 174.9915314,175.506958 157.8733673,185.3747559 "/>
<polygon class="st8" points="192.0989075,185.3839111 174.986145,195.2643127 174.9915314,215.0147552 192.0989075,205.1378174 "/>
<polygon class="st0" points="174.9924469,189.197876 114.9924469,223.8388977 174.9924469,258.4799194 234.9924469,223.8388977 "/>
<polygon class="st1" points="234.9924469,228.8388977 234.9924469,233.8388977 229.9924469,236.725647 229.9924469,231.725647 "/>
<polygon class="st1" points="174.9924469,263.4799194 174.9924469,268.4799194 179.9924469,265.5931702 179.9924469,260.5931702 "/>
<polygon class="st2" points="229.9924469,236.725647 225.662323,234.225647 229.9924469,231.725647 "/>
<polygon class="st1" points="207.3530731,244.7963867 207.3530731,249.7963867 202.3530731,252.683136 202.3530731,247.683136 "/>
<polygon class="st2" points="202.3530731,252.683136 198.0229492,250.183136 202.3530731,247.683136 "/>
<polygon class="st1" points="234.9924469,223.8388977 234.9924469,228.8388977 174.9924469,263.4799194 174.9924469,258.4799194 "/>
<polygon class="st2" points="174.9924469,263.4799194 174.9924469,258.4799194 114.9924469,223.8388977 114.9924469,228.8388977 "/>
<polygon class="st2" points="114.9924469,228.8388977 114.9924469,233.8388977 119.9924469,236.725647 119.9924469,231.725647 "/>
<polygon class="st2" points="174.9924469,263.4799194 174.9924469,268.4799194 169.9924469,265.5931702 169.9924469,260.5931702 "/>
<polygon class="st3" points="119.9924469,236.725647 124.3225784,234.225647 119.9924469,231.725647 "/>
<polygon class="st4" points="174.986145,192.0875549 157.8733673,182.197998 157.8841553,201.9610443 174.9915314,211.8379974 "/>
<polygon class="st5" points="174.986145,192.0875549 192.0989075,182.2071533 174.9915314,172.3302002 157.8733673,182.197998 "/>
<polygon class="st6" points="192.0989075,182.2071533 174.986145,192.0875549 174.9915314,211.8379974 192.0989075,201.9610443 "/>
<polygon class="st4" points="156.0393677,203.026474 138.9266052,193.1369171 138.9373932,212.8999634 156.0447693,222.7769165 "/>
<polygon class="st5" points="156.0393677,203.026474 173.1521454,193.1460724 156.0447693,183.2691193 138.9266052,193.1369171 "/>
<polygon class="st6" points="173.1521454,193.1460724 156.0393677,203.026474 156.0447693,222.7769165 173.1521454,212.8999634 "/>
<polygon class="st7" points="137.0926056,213.9653931 119.9798355,204.0758362 119.9906235,223.8388977 137.0980072,233.7158356 "/>
<polygon class="st5" points="137.0926056,213.9653931 154.2053833,204.0849915 137.0980072,194.2080383 119.9798355,204.0758362 "/>
<polygon class="st6" points="154.2053833,204.0849915 137.0926056,213.9653931 137.0980072,233.7158356 154.2053833,223.8388977 "/>
<polygon class="st4" points="193.9329071,203.026474 176.8201294,193.1369171 176.8309174,212.8999634 193.9383087,222.7769165 "/>
<polygon class="st5" points="193.9329071,203.026474 211.0456848,193.1460724 193.9383087,183.2691193 176.8201294,193.1369171 "/>
<polygon class="st6" points="211.0456848,193.1460724 193.9329071,203.026474 193.9383087,222.7769165 211.0456848,212.8999634 "/>
<polygon class="st4" points="212.8796692,213.9653931 195.7669067,204.0758362 195.7776947,223.8388977 212.8850708,233.7158356 "/>
<polygon class="st5" points="212.8796692,213.9653931 229.9924469,204.0849915 212.8850708,194.2080383 195.7669067,204.0758362 "/>
<polygon class="st8" points="229.9924469,204.0849915 212.8796692,213.9653931 212.8850708,233.7158356 229.9924469,223.8388977 "/>
<polygon class="st4" points="174.986145,213.9653931 157.8733673,204.0758362 157.8841553,223.8388977 174.9915314,233.7158356 "/>
<polygon class="st5" points="174.986145,213.9653931 192.0989075,204.0849915 174.9915314,194.2080383 157.8733673,204.0758362 "/>
<polygon class="st6" points="192.0989075,204.0849915 174.986145,213.9653931 174.9915314,233.7158356 192.0989075,223.8388977 "/>
<polygon class="st4" points="193.9329071,224.9043121 176.8201294,215.0147552 176.8309174,234.7778168 193.9383087,244.6547546 "/>
<polygon class="st5" points="193.9329071,224.9043121 211.0456848,215.0239105 193.9383087,205.1469574 176.8201294,215.0147552 "/>
<polygon class="st8" points="211.0456848,215.0239105 193.9329071,224.9043121 193.9383087,244.6547546 211.0456848,234.7778168 "/>
<polygon class="st7" points="156.0393677,224.9043121 138.9266052,215.0147552 138.9373932,234.7778168 156.0447693,244.6547546 "/>
<polygon class="st5" points="156.0393677,224.9043121 173.1521454,215.0239105 156.0447693,205.1469574 138.9266052,215.0147552 "/>
<polygon class="st6" points="173.1521454,215.0239105 156.0393677,224.9043121 156.0447693,244.6547546 173.1521454,234.7778168 "/>
<polygon class="st7" points="174.986145,235.8432312 157.8733673,225.9536896 157.8841553,245.7167358 174.9915314,255.593689 "/>
<polygon class="st5" points="174.986145,235.8432312 192.0989075,225.9628296 174.9915314,216.0858765 157.8733673,225.9536896 "/>
<polygon class="st8" points="192.0989075,225.9628296 174.986145,235.8432312 174.9915314,255.593689 192.0989075,245.7167358 "/>
<polygon class="st2" points="142.6318207,244.7963867 142.6318207,249.7963867 147.6318207,252.683136 147.6318207,247.683136 "/>
<polygon class="st3" points="147.6318207,252.683136 151.9619446,250.183136 147.6318207,247.683136 "/>
<polygon class="st4" points="174.986145,171.77771 157.8733673,161.8881683 157.8841553,181.6512146 174.9915314,191.5281677 "/>
<polygon class="st5" points="174.986145,171.77771 192.0989075,161.8973236 174.9915314,152.0203705 157.8733673,161.8881683 "/>
<polygon class="st6" points="192.0989075,161.8973236 174.986145,171.77771 174.9915314,191.5281677 192.0989075,181.6512146 "/>
<polygon class="st4" points="156.0393677,182.7166443 138.9266052,172.8270874 138.9373932,192.5901337 156.0447693,202.4670868 "/>
<polygon class="st5" points="156.0393677,182.7166443 173.1521454,172.8362427 156.0447693,162.9592896 138.9266052,172.8270874 "/>
<polygon class="st6" points="173.1521454,172.8362427 156.0393677,182.7166443 156.0447693,202.4670868 173.1521454,192.5901337 "/>
<polygon class="st7" points="137.0926056,193.6555634 119.9798355,183.7660065 119.9906235,203.5290527 137.0980072,213.4060059 "/>
<polygon class="st5" points="137.0926056,193.6555634 154.2053833,183.7751617 137.0980072,173.8982086 119.9798355,183.7660065 "/>
<polygon class="st6" points="154.2053833,183.7751617 137.0926056,193.6555634 137.0980072,213.4060059 154.2053833,203.5290527 "/>
<polygon class="st4" points="193.9329071,182.7166443 176.8201294,172.8270874 176.8309174,192.5901337 193.9383087,202.4670868 "/>
<polygon class="st5" points="193.9329071,182.7166443 211.0456848,172.8362427 193.9383087,162.9592896 176.8201294,172.8270874 "/>
<polygon class="st6" points="211.0456848,172.8362427 193.9329071,182.7166443 193.9383087,202.4670868 211.0456848,192.5901337 "/>
<polygon class="st4" points="212.8796692,193.6555634 195.7669067,183.7660065 195.7776947,203.5290527 212.8850708,213.4060059 "/>
<polygon class="st5" points="212.8796692,193.6555634 229.9924469,183.7751617 212.8850708,173.8982086 195.7669067,183.7660065 "/>
<polygon class="st8" points="229.9924469,183.7751617 212.8796692,193.6555634 212.8850708,213.4060059 229.9924469,203.5290527 "/>
<polygon class="st4" points="174.986145,193.6555634 157.8733673,183.7660065 157.8841553,203.5290527 174.9915314,213.4060059 "/>
<polygon class="st5" points="174.986145,193.6555634 192.0989075,183.7751617 174.9915314,173.8982086 157.8733673,183.7660065 "/>
<polygon class="st6" points="192.0989075,183.7751617 174.986145,193.6555634 174.9915314,213.4060059 192.0989075,203.5290527 "/>
<polygon class="st4" points="193.9329071,204.5944824 176.8201294,194.7049255 176.8309174,214.4679871 193.9383087,224.3449249 "/>
<polygon class="st5" points="193.9329071,204.5944824 211.0456848,194.7140808 193.9383087,184.8371277 176.8201294,194.7049255 "/>
<polygon class="st8" points="211.0456848,194.7140808 193.9329071,204.5944824 193.9383087,224.3449249 211.0456848,214.4679871 "/>
<polygon class="st7" points="156.0393677,204.5944824 138.9266052,194.7049255 138.9373932,214.4679871 156.0447693,224.3449249 "/>
<polygon class="st5" points="156.0393677,204.5944824 173.1521454,194.7140808 156.0447693,184.8371277 138.9266052,194.7049255 "/>
<polygon class="st6" points="173.1521454,194.7140808 156.0393677,204.5944824 156.0447693,224.3449249 173.1521454,214.4679871 "/>
<polygon class="st7" points="174.986145,215.5334015 157.8733673,205.6438446 157.8841553,225.4069061 174.9915314,235.283844 "/>
<polygon class="st5" points="174.986145,215.5334015 192.0989075,205.6529999 174.9915314,195.7760468 157.8733673,205.6438446 "/>
<polygon class="st8" points="192.0989075,205.6529999 174.986145,215.5334015 174.9915314,235.283844 192.0989075,225.4069061 "/>
<polygon class="st4" points="174.986145,151.5086212 157.8733673,141.6190796 157.8841553,161.3821259 174.9915314,171.259079 "/>
<polygon class="st5" points="174.986145,151.5086212 192.0989075,141.6282349 174.9915314,131.7512817 157.8733673,141.6190796 "/>
<polygon class="st6" points="192.0989075,141.6282349 174.986145,151.5086212 174.9915314,171.259079 192.0989075,161.3821259 "/>
<polygon class="st4" points="156.0393677,162.4475555 138.9266052,152.5579987 138.9373932,172.3210449 156.0447693,182.197998 "/>
<polygon class="st5" points="156.0393677,162.4475555 173.1521454,152.5671539 156.0447693,142.6902008 138.9266052,152.5579987 "/>
<polygon class="st6" points="173.1521454,152.5671539 156.0393677,162.4475555 156.0447693,182.197998 173.1521454,172.3210449 "/>
<polygon class="st7" points="137.0926056,173.3864746 119.9798355,163.4969177 119.9906235,183.259964 137.0980072,193.1369171 "/>
<polygon class="st5" points="137.0926056,173.3864746 154.2053833,163.506073 137.0980072,153.6291199 119.9798355,163.4969177 "/>
<polygon class="st6" points="154.2053833,163.506073 137.0926056,173.3864746 137.0980072,193.1369171 154.2053833,183.259964 "/>
<polygon class="st4" points="193.9329071,162.4475555 176.8201294,152.5579987 176.8309174,172.3210449 193.9383087,182.197998 "/>
<polygon class="st5" points="193.9329071,162.4475555 211.0456848,152.5671539 193.9383087,142.6902008 176.8201294,152.5579987 "/>
<polygon class="st6" points="211.0456848,152.5671539 193.9329071,162.4475555 193.9383087,182.197998 211.0456848,172.3210449 "/>
<polygon class="st4" points="212.8796692,173.3864746 195.7669067,163.4969177 195.7776947,183.259964 212.8850708,193.1369171 "/>
<polygon class="st5" points="212.8796692,173.3864746 229.9924469,163.506073 212.8850708,153.6291199 195.7669067,163.4969177 "/>
<polygon class="st8" points="229.9924469,163.506073 212.8796692,173.3864746 212.8850708,193.1369171 229.9924469,183.259964 "/>
<polygon class="st4" points="174.986145,173.3864746 157.8733673,163.4969177 157.8841553,183.259964 174.9915314,193.1369171 "/>
<polygon class="st5" points="174.986145,173.3864746 192.0989075,163.506073 174.9915314,153.6291199 157.8733673,163.4969177 "/>
<polygon class="st6" points="192.0989075,163.506073 174.986145,173.3864746 174.9915314,193.1369171 192.0989075,183.259964 "/>
<polygon class="st4" points="193.9329071,184.3253937 176.8201294,174.4358368 176.8309174,194.1988983 193.9383087,204.0758362 "/>
<polygon class="st5" points="193.9329071,184.3253937 211.0456848,174.4449921 193.9383087,164.5680389 176.8201294,174.4358368 "/>
<polygon class="st8" points="211.0456848,174.4449921 193.9329071,184.3253937 193.9383087,204.0758362 211.0456848,194.1988983 "/>
<polygon class="st7" points="156.0393677,184.3253937 138.9266052,174.4358368 138.9373932,194.1988983 156.0447693,204.0758362 "/>
<polygon class="st5" points="156.0393677,184.3253937 173.1521454,174.4449921 156.0447693,164.5680389 138.9266052,174.4358368 "/>
<polygon class="st6" points="173.1521454,174.4449921 156.0393677,184.3253937 156.0447693,204.0758362 173.1521454,194.1988983 "/>
<polygon class="st7" points="174.986145,195.2643127 157.8733673,185.3747559 157.8841553,205.1378174 174.9915314,215.0147552 "/>
<polygon class="st5" points="174.986145,195.2643127 192.0989075,185.3839111 174.9915314,175.506958 157.8733673,185.3747559 "/>
<polygon class="st8" points="192.0989075,185.3839111 174.986145,195.2643127 174.9915314,215.0147552 192.0989075,205.1378174 "/>
<polygon class="st0" points="304.9924622,189.197876 244.9924469,223.8388977 304.9924622,258.4799194 364.9924622,223.8388977 "/>
<polygon class="st1" points="364.9924622,228.8388977 364.9924622,233.8388977 359.9924622,236.725647 359.9924622,231.725647 "/>
<polygon class="st1" points="304.9924622,263.4799194 304.9924622,268.4799194 309.9924622,265.5931702 309.9924622,260.5931702 "/>
<polygon class="st2" points="359.9924622,236.725647 355.662323,234.225647 359.9924622,231.725647 "/>
<polygon class="st1" points="337.3530579,244.7963867 337.3530579,249.7963867 332.3530579,252.683136 332.3530579,247.683136 "/>
<polygon class="st2" points="332.3530579,252.683136 328.0229492,250.183136 332.3530579,247.683136 "/>
<polygon class="st1" points="364.9924622,223.8388977 364.9924622,228.8388977 304.9924622,263.4799194 304.9924622,258.4799194 "/>
<polygon class="st2" points="304.9924622,263.4799194 304.9924622,258.4799194 244.9924469,223.8388977 244.9924469,228.8388977 "/>
<polygon class="st2" points="244.9924469,228.8388977 244.9924469,233.8388977 249.9924469,236.725647 249.9924469,231.725647 "/>
<polygon class="st2" points="304.9924622,263.4799194 304.9924622,268.4799194 299.9924622,265.5931702 299.9924622,260.5931702 "/>
<polygon class="st3" points="249.9924469,236.725647 254.3225708,234.225647 249.9924469,231.725647 "/>
<polygon class="st4" points="304.986145,192.0875549 287.8733521,182.197998 287.8841553,201.9610443 304.9915466,211.8379974 "/>
<polygon class="st5" points="304.986145,192.0875549 322.0989075,182.2071533 304.9915466,172.3302002 287.8733521,182.197998 "/>
<polygon class="st6" points="322.0989075,182.2071533 304.986145,192.0875549 304.9915466,211.8379974 322.0989075,201.9610443 "/>
<polygon class="st4" points="286.0393677,203.026474 268.9266052,193.1369171 268.9373779,212.8999634 286.0447693,222.7769165 "/>
<polygon class="st5" points="286.0393677,203.026474 303.1521606,193.1460724 286.0447693,183.2691193 268.9266052,193.1369171 "/>
<polygon class="st6" points="303.1521606,193.1460724 286.0393677,203.026474 286.0447693,222.7769165 303.1521606,212.8999634 "/>
<polygon class="st7" points="267.0926208,213.9653931 249.9798279,204.0758362 249.9906158,223.8388977 267.0979919,233.7158356 "/>
<polygon class="st5" points="267.0926208,213.9653931 284.2053833,204.0849915 267.0979919,194.2080383 249.9798279,204.0758362 "/>
<polygon class="st6" points="284.2053833,204.0849915 267.0926208,213.9653931 267.0979919,233.7158356 284.2053833,223.8388977 "/>
<polygon class="st4" points="323.9329224,203.026474 306.8201294,193.1369171 306.8309326,212.8999634 323.9382935,222.7769165 "/>
<polygon class="st5" points="323.9329224,203.026474 341.0456848,193.1460724 323.9382935,183.2691193 306.8201294,193.1369171 "/>
<polygon class="st6" points="341.0456848,193.1460724 323.9329224,203.026474 323.9382935,222.7769165 341.0456848,212.8999634 "/>
<polygon class="st4" points="342.8796692,213.9653931 325.7669067,204.0758362 325.7776794,223.8388977 342.8850708,233.7158356 "/>
<polygon class="st5" points="342.8796692,213.9653931 359.9924622,204.0849915 342.8850708,194.2080383 325.7669067,204.0758362 "/>
<polygon class="st8" points="359.9924622,204.0849915 342.8796692,213.9653931 342.8850708,233.7158356 359.9924622,223.8388977 "/>
<polygon class="st4" points="304.986145,213.9653931 287.8733521,204.0758362 287.8841553,223.8388977 304.9915466,233.7158356 "/>
<polygon class="st5" points="304.986145,213.9653931 322.0989075,204.0849915 304.9915466,194.2080383 287.8733521,204.0758362 "/>
<polygon class="st6" points="322.0989075,204.0849915 304.986145,213.9653931 304.9915466,233.7158356 322.0989075,223.8388977 "/>
<polygon class="st4" points="323.9329224,224.9043121 306.8201294,215.0147552 306.8309326,234.7778168 323.9382935,244.6547546 "/>
<polygon class="st5" points="323.9329224,224.9043121 341.0456848,215.0239105 323.9382935,205.1469574 306.8201294,215.0147552 "/>
<polygon class="st8" points="341.0456848,215.0239105 323.9329224,224.9043121 323.9382935,244.6547546 341.0456848,234.7778168 "/>
<polygon class="st7" points="286.0393677,224.9043121 268.9266052,215.0147552 268.9373779,234.7778168 286.0447693,244.6547546 "/>
<polygon class="st5" points="286.0393677,224.9043121 303.1521606,215.0239105 286.0447693,205.1469574 268.9266052,215.0147552 "/>
<polygon class="st6" points="303.1521606,215.0239105 286.0393677,224.9043121 286.0447693,244.6547546 303.1521606,234.7778168 "/>
<polygon class="st7" points="304.986145,235.8432312 287.8733521,225.9536896 287.8841553,245.7167358 304.9915466,255.593689 "/>
<polygon class="st5" points="304.986145,235.8432312 322.0989075,225.9628296 304.9915466,216.0858765 287.8733521,225.9536896 "/>
<polygon class="st8" points="322.0989075,225.9628296 304.986145,235.8432312 304.9915466,255.593689 322.0989075,245.7167358 "/>
<polygon class="st2" points="272.6318359,244.7963867 272.6318359,249.7963867 277.6318359,252.683136 277.6318359,247.683136 "/>
<polygon class="st3" points="277.6318359,252.683136 281.9619446,250.183136 277.6318359,247.683136 "/>
<polygon class="st4" points="304.986145,171.77771 287.8733521,161.8881683 287.8841553,181.6512146 304.9915466,191.5281677 "/>
<polygon class="st5" points="304.986145,171.77771 322.0989075,161.8973236 304.9915466,152.0203705 287.8733521,161.8881683 "/>
<polygon class="st6" points="322.0989075,161.8973236 304.986145,171.77771 304.9915466,191.5281677 322.0989075,181.6512146 "/>
<polygon class="st4" points="286.0393677,182.7166443 268.9266052,172.8270874 268.9373779,192.5901337 286.0447693,202.4670868 "/>
<polygon class="st5" points="286.0393677,182.7166443 303.1521606,172.8362427 286.0447693,162.9592896 268.9266052,172.8270874 "/>
<polygon class="st6" points="303.1521606,172.8362427 286.0393677,182.7166443 286.0447693,202.4670868 303.1521606,192.5901337 "/>
<polygon class="st7" points="267.0926208,193.6555634 249.9798279,183.7660065 249.9906158,203.5290527 267.0979919,213.4060059 "/>
<polygon class="st5" points="267.0926208,193.6555634 284.2053833,183.7751617 267.0979919,173.8982086 249.9798279,183.7660065 "/>
<polygon class="st6" points="284.2053833,183.7751617 267.0926208,193.6555634 267.0979919,213.4060059 284.2053833,203.5290527 "/>
<polygon class="st4" points="323.9329224,182.7166443 306.8201294,172.8270874 306.8309326,192.5901337 323.9382935,202.4670868 "/>
<polygon class="st5" points="323.9329224,182.7166443 341.0456848,172.8362427 323.9382935,162.9592896 306.8201294,172.8270874 "/>
<polygon class="st6" points="341.0456848,172.8362427 323.9329224,182.7166443 323.9382935,202.4670868 341.0456848,192.5901337 "/>
<polygon class="st4" points="342.8796692,193.6555634 325.7669067,183.7660065 325.7776794,203.5290527 342.8850708,213.4060059 "/>
<polygon class="st5" points="342.8796692,193.6555634 359.9924622,183.7751617 342.8850708,173.8982086 325.7669067,183.7660065 "/>
<polygon class="st8" points="359.9924622,183.7751617 342.8796692,193.6555634 342.8850708,213.4060059 359.9924622,203.5290527 "/>
<polygon class="st4" points="304.986145,193.6555634 287.8733521,183.7660065 287.8841553,203.5290527 304.9915466,213.4060059 "/>
<polygon class="st5" points="304.986145,193.6555634 322.0989075,183.7751617 304.9915466,173.8982086 287.8733521,183.7660065 "/>
<polygon class="st6" points="322.0989075,183.7751617 304.986145,193.6555634 304.9915466,213.4060059 322.0989075,203.5290527 "/>
<polygon class="st4" points="323.9329224,204.5944824 306.8201294,194.7049255 306.8309326,214.4679871 323.9382935,224.3449249 "/>
<polygon class="st5" points="323.9329224,204.5944824 341.0456848,194.7140808 323.9382935,184.8371277 306.8201294,194.7049255 "/>
<polygon class="st8" points="341.0456848,194.7140808 323.9329224,204.5944824 323.9382935,224.3449249 341.0456848,214.4679871 "/>
<polygon class="st7" points="286.0393677,204.5944824 268.9266052,194.7049255 268.9373779,214.4679871 286.0447693,224.3449249 "/>
<polygon class="st5" points="286.0393677,204.5944824 303.1521606,194.7140808 286.0447693,184.8371277 268.9266052,194.7049255 "/>
<polygon class="st6" points="303.1521606,194.7140808 286.0393677,204.5944824 286.0447693,224.3449249 303.1521606,214.4679871 "/>
<polygon class="st7" points="304.986145,215.5334015 287.8733521,205.6438446 287.8841553,225.4069061 304.9915466,235.283844 "/>
<polygon class="st5" points="304.986145,215.5334015 322.0989075,205.6529999 304.9915466,195.7760468 287.8733521,205.6438446 "/>
<polygon class="st8" points="322.0989075,205.6529999 304.986145,215.5334015 304.9915466,235.283844 322.0989075,225.4069061 "/>
<polygon class="st4" points="304.986145,151.5086212 287.8733521,141.6190796 287.8841553,161.3821259 304.9915466,171.259079 "/>
<polygon class="st5" points="304.986145,151.5086212 322.0989075,141.6282349 304.9915466,131.7512817 287.8733521,141.6190796 "/>
<polygon class="st6" points="322.0989075,141.6282349 304.986145,151.5086212 304.9915466,171.259079 322.0989075,161.3821259 "/>
<polygon class="st4" points="286.0393677,162.4475555 268.9266052,152.5579987 268.9373779,172.3210449 286.0447693,182.197998 "/>
<polygon class="st5" points="286.0393677,162.4475555 303.1521606,152.5671539 286.0447693,142.6902008 268.9266052,152.5579987 "/>
<polygon class="st6" points="303.1521606,152.5671539 286.0393677,162.4475555 286.0447693,182.197998 303.1521606,172.3210449 "/>
<polygon class="st7" points="267.0926208,173.3864746 249.9798279,163.4969177 249.9906158,183.259964 267.0979919,193.1369171 "/>
<polygon class="st5" points="267.0926208,173.3864746 284.2053833,163.506073 267.0979919,153.6291199 249.9798279,163.4969177 "/>
<polygon class="st6" points="284.2053833,163.506073 267.0926208,173.3864746 267.0979919,193.1369171 284.2053833,183.259964 "/>
<polygon class="st4" points="323.9329224,162.4475555 306.8201294,152.5579987 306.8309326,172.3210449 323.9382935,182.197998 "/>
<polygon class="st5" points="323.9329224,162.4475555 341.0456848,152.5671539 323.9382935,142.6902008 306.8201294,152.5579987 "/>
<polygon class="st6" points="341.0456848,152.5671539 323.9329224,162.4475555 323.9382935,182.197998 341.0456848,172.3210449 "/>
<polygon class="st4" points="342.8796692,173.3864746 325.7669067,163.4969177 325.7776794,183.259964 342.8850708,193.1369171 "/>
<polygon class="st5" points="342.8796692,173.3864746 359.9924622,163.506073 342.8850708,153.6291199 325.7669067,163.4969177 "/>
<polygon class="st8" points="359.9924622,163.506073 342.8796692,173.3864746 342.8850708,193.1369171 359.9924622,183.259964 "/>
<polygon class="st4" points="304.986145,173.3864746 287.8733521,163.4969177 287.8841553,183.259964 304.9915466,193.1369171 "/>
<polygon class="st5" points="304.986145,173.3864746 322.0989075,163.506073 304.9915466,153.6291199 287.8733521,163.4969177 "/>
<polygon class="st6" points="322.0989075,163.506073 304.986145,173.3864746 304.9915466,193.1369171 322.0989075,183.259964 "/>
<polygon class="st4" points="323.9329224,184.3253937 306.8201294,174.4358368 306.8309326,194.1988983 323.9382935,204.0758362 "/>
<polygon class="st5" points="323.9329224,184.3253937 341.0456848,174.4449921 323.9382935,164.5680389 306.8201294,174.4358368 "/>
<polygon class="st8" points="341.0456848,174.4449921 323.9329224,184.3253937 323.9382935,204.0758362 341.0456848,194.1988983 "/>
<polygon class="st7" points="286.0393677,184.3253937 268.9266052,174.4358368 268.9373779,194.1988983 286.0447693,204.0758362 "/>
<polygon class="st5" points="286.0393677,184.3253937 303.1521606,174.4449921 286.0447693,164.5680389 268.9266052,174.4358368 "/>
<polygon class="st6" points="303.1521606,174.4449921 286.0393677,184.3253937 286.0447693,204.0758362 303.1521606,194.1988983 "/>
<polygon class="st7" points="304.986145,195.2643127 287.8733521,185.3747559 287.8841553,205.1378174 304.9915466,215.0147552 "/>
<polygon class="st5" points="304.986145,195.2643127 322.0989075,185.3839111 304.9915466,175.506958 287.8733521,185.3747559 "/>
<polygon class="st8" points="322.0989075,185.3839111 304.986145,195.2643127 304.9915466,215.0147552 322.0989075,205.1378174 "/>
<polygon class="st0" points="304.9924622,189.197876 244.9924469,223.8388977 304.9924622,258.4799194 364.9924622,223.8388977 "/>
<polygon class="st1" points="364.9924622,228.8388977 364.9924622,233.8388977 359.9924622,236.725647 359.9924622,231.725647 "/>
<polygon class="st1" points="304.9924622,263.4799194 304.9924622,268.4799194 309.9924622,265.5931702 309.9924622,260.5931702 "/>
<polygon class="st2" points="359.9924622,236.725647 355.662323,234.225647 359.9924622,231.725647 "/>
<polygon class="st1" points="337.3530579,244.7963867 337.3530579,249.7963867 332.3530579,252.683136 332.3530579,247.683136 "/>
<polygon class="st2" points="332.3530579,252.683136 328.0229492,250.183136 332.3530579,247.683136 "/>
<polygon class="st1" points="364.9924622,223.8388977 364.9924622,228.8388977 304.9924622,263.4799194 304.9924622,258.4799194 "/>
<polygon class="st2" points="304.9924622,263.4799194 304.9924622,258.4799194 244.9924469,223.8388977 244.9924469,228.8388977 "/>
<polygon class="st2" points="244.9924469,228.8388977 244.9924469,233.8388977 249.9924469,236.725647 249.9924469,231.725647 "/>
<polygon class="st2" points="304.9924622,263.4799194 304.9924622,268.4799194 299.9924622,265.5931702 299.9924622,260.5931702 "/>
<polygon class="st3" points="249.9924469,236.725647 254.3225708,234.225647 249.9924469,231.725647 "/>
<polygon class="st4" points="304.986145,192.0875549 287.8733521,182.197998 287.8841553,201.9610443 304.9915466,211.8379974 "/>
<polygon class="st5" points="304.986145,192.0875549 322.0989075,182.2071533 304.9915466,172.3302002 287.8733521,182.197998 "/>
<polygon class="st6" points="322.0989075,182.2071533 304.986145,192.0875549 304.9915466,211.8379974 322.0989075,201.9610443 "/>
<polygon class="st4" points="286.0393677,203.026474 268.9266052,193.1369171 268.9373779,212.8999634 286.0447693,222.7769165 "/>
<polygon class="st5" points="286.0393677,203.026474 303.1521606,193.1460724 286.0447693,183.2691193 268.9266052,193.1369171 "/>
<polygon class="st6" points="303.1521606,193.1460724 286.0393677,203.026474 286.0447693,222.7769165 303.1521606,212.8999634 "/>
<polygon class="st7" points="267.0926208,213.9653931 249.9798279,204.0758362 249.9906158,223.8388977 267.0979919,233.7158356 "/>
<polygon class="st5" points="267.0926208,213.9653931 284.2053833,204.0849915 267.0979919,194.2080383 249.9798279,204.0758362 "/>
<polygon class="st6" points="284.2053833,204.0849915 267.0926208,213.9653931 267.0979919,233.7158356 284.2053833,223.8388977 "/>
<polygon class="st4" points="323.9329224,203.026474 306.8201294,193.1369171 306.8309326,212.8999634 323.9382935,222.7769165 "/>
<polygon class="st5" points="323.9329224,203.026474 341.0456848,193.1460724 323.9382935,183.2691193 306.8201294,193.1369171 "/>
<polygon class="st6" points="341.0456848,193.1460724 323.9329224,203.026474 323.9382935,222.7769165 341.0456848,212.8999634 "/>
<polygon class="st4" points="342.8796692,213.9653931 325.7669067,204.0758362 325.7776794,223.8388977 342.8850708,233.7158356 "/>
<polygon class="st5" points="342.8796692,213.9653931 359.9924622,204.0849915 342.8850708,194.2080383 325.7669067,204.0758362 "/>
<polygon class="st8" points="359.9924622,204.0849915 342.8796692,213.9653931 342.8850708,233.7158356 359.9924622,223.8388977 "/>
<polygon class="st4" points="304.986145,213.9653931 287.8733521,204.0758362 287.8841553,223.8388977 304.9915466,233.7158356 "/>
<polygon class="st5" points="304.986145,213.9653931 322.0989075,204.0849915 304.9915466,194.2080383 287.8733521,204.0758362 "/>
<polygon class="st6" points="322.0989075,204.0849915 304.986145,213.9653931 304.9915466,233.7158356 322.0989075,223.8388977 "/>
<polygon class="st4" points="323.9329224,224.9043121 306.8201294,215.0147552 306.8309326,234.7778168 323.9382935,244.6547546 "/>
<polygon class="st5" points="323.9329224,224.9043121 341.0456848,215.0239105 323.9382935,205.1469574 306.8201294,215.0147552 "/>
<polygon class="st8" points="341.0456848,215.0239105 323.9329224,224.9043121 323.9382935,244.6547546 341.0456848,234.7778168 "/>
<polygon class="st7" points="286.0393677,224.9043121 268.9266052,215.0147552 268.9373779,234.7778168 286.0447693,244.6547546 "/>
<polygon class="st5" points="286.0393677,224.9043121 303.1521606,215.0239105 286.0447693,205.1469574 268.9266052,215.0147552 "/>
<polygon class="st6" points="303.1521606,215.0239105 286.0393677,224.9043121 286.0447693,244.6547546 303.1521606,234.7778168 "/>
<polygon class="st7" points="304.986145,235.8432312 287.8733521,225.9536896 287.8841553,245.7167358 304.9915466,255.593689 "/>
<polygon class="st5" points="304.986145,235.8432312 322.0989075,225.9628296 304.9915466,216.0858765 287.8733521,225.9536896 "/>
<polygon class="st8" points="322.0989075,225.9628296 304.986145,235.8432312 304.9915466,255.593689 322.0989075,245.7167358 "/>
<polygon class="st2" points="272.6318359,244.7963867 272.6318359,249.7963867 277.6318359,252.683136 277.6318359,247.683136 "/>
<polygon class="st3" points="277.6318359,252.683136 281.9619446,250.183136 277.6318359,247.683136 "/>
<polygon class="st4" points="304.986145,171.77771 287.8733521,161.8881683 287.8841553,181.6512146 304.9915466,191.5281677 "/>
<polygon class="st5" points="304.986145,171.77771 322.0989075,161.8973236 304.9915466,152.0203705 287.8733521,161.8881683 "/>
<polygon class="st6" points="322.0989075,161.8973236 304.986145,171.77771 304.9915466,191.5281677 322.0989075,181.6512146 "/>
<polygon class="st4" points="286.0393677,182.7166443 268.9266052,172.8270874 268.9373779,192.5901337 286.0447693,202.4670868 "/>
<polygon class="st5" points="286.0393677,182.7166443 303.1521606,172.8362427 286.0447693,162.9592896 268.9266052,172.8270874 "/>
<polygon class="st6" points="303.1521606,172.8362427 286.0393677,182.7166443 286.0447693,202.4670868 303.1521606,192.5901337 "/>
<polygon class="st7" points="267.0926208,193.6555634 249.9798279,183.7660065 249.9906158,203.5290527 267.0979919,213.4060059 "/>
<polygon class="st5" points="267.0926208,193.6555634 284.2053833,183.7751617 267.0979919,173.8982086 249.9798279,183.7660065 "/>
<polygon class="st6" points="284.2053833,183.7751617 267.0926208,193.6555634 267.0979919,213.4060059 284.2053833,203.5290527 "/>
<polygon class="st4" points="323.9329224,182.7166443 306.8201294,172.8270874 306.8309326,192.5901337 323.9382935,202.4670868 "/>
<polygon class="st5" points="323.9329224,182.7166443 341.0456848,172.8362427 323.9382935,162.9592896 306.8201294,172.8270874 "/>
<polygon class="st6" points="341.0456848,172.8362427 323.9329224,182.7166443 323.9382935,202.4670868 341.0456848,192.5901337 "/>
<polygon class="st4" points="342.8796692,193.6555634 325.7669067,183.7660065 325.7776794,203.5290527 342.8850708,213.4060059 "/>
<polygon class="st5" points="342.8796692,193.6555634 359.9924622,183.7751617 342.8850708,173.8982086 325.7669067,183.7660065 "/>
<polygon class="st8" points="359.9924622,183.7751617 342.8796692,193.6555634 342.8850708,213.4060059 359.9924622,203.5290527 "/>
<polygon class="st4" points="304.986145,193.6555634 287.8733521,183.7660065 287.8841553,203.5290527 304.9915466,213.4060059 "/>
<polygon class="st5" points="304.986145,193.6555634 322.0989075,183.7751617 304.9915466,173.8982086 287.8733521,183.7660065 "/>
<polygon class="st6" points="322.0989075,183.7751617 304.986145,193.6555634 304.9915466,213.4060059 322.0989075,203.5290527 "/>
<polygon class="st4" points="323.9329224,204.5944824 306.8201294,194.7049255 306.8309326,214.4679871 323.9382935,224.3449249 "/>
<polygon class="st5" points="323.9329224,204.5944824 341.0456848,194.7140808 323.9382935,184.8371277 306.8201294,194.7049255 "/>
<polygon class="st8" points="341.0456848,194.7140808 323.9329224,204.5944824 323.9382935,224.3449249 341.0456848,214.4679871 "/>
<polygon class="st7" points="286.0393677,204.5944824 268.9266052,194.7049255 268.9373779,214.4679871 286.0447693,224.3449249 "/>
<polygon class="st5" points="286.0393677,204.5944824 303.1521606,194.7140808 286.0447693,184.8371277 268.9266052,194.7049255 "/>
<polygon class="st6" points="303.1521606,194.7140808 286.0393677,204.5944824 286.0447693,224.3449249 303.1521606,214.4679871 "/>
<polygon class="st7" points="304.986145,215.5334015 287.8733521,205.6438446 287.8841553,225.4069061 304.9915466,235.283844 "/>
<polygon class="st5" points="304.986145,215.5334015 322.0989075,205.6529999 304.9915466,195.7760468 287.8733521,205.6438446 "/>
<polygon class="st8" points="322.0989075,205.6529999 304.986145,215.5334015 304.9915466,235.283844 322.0989075,225.4069061 "/>
<polygon class="st4" points="304.986145,151.5086212 287.8733521,141.6190796 287.8841553,161.3821259 304.9915466,171.259079 "/>
<polygon class="st5" points="304.986145,151.5086212 322.0989075,141.6282349 304.9915466,131.7512817 287.8733521,141.6190796 "/>
<polygon class="st6" points="322.0989075,141.6282349 304.986145,151.5086212 304.9915466,171.259079 322.0989075,161.3821259 "/>
<polygon class="st4" points="286.0393677,162.4475555 268.9266052,152.5579987 268.9373779,172.3210449 286.0447693,182.197998 "/>
<polygon class="st5" points="286.0393677,162.4475555 303.1521606,152.5671539 286.0447693,142.6902008 268.9266052,152.5579987 "/>
<polygon class="st6" points="303.1521606,152.5671539 286.0393677,162.4475555 286.0447693,182.197998 303.1521606,172.3210449 "/>
<polygon class="st7" points="267.0926208,173.3864746 249.9798279,163.4969177 249.9906158,183.259964 267.0979919,193.1369171 "/>
<polygon class="st5" points="267.0926208,173.3864746 284.2053833,163.506073 267.0979919,153.6291199 249.9798279,163.4969177 "/>
<polygon class="st6" points="284.2053833,163.506073 267.0926208,173.3864746 267.0979919,193.1369171 284.2053833,183.259964 "/>
<polygon class="st4" points="323.9329224,162.4475555 306.8201294,152.5579987 306.8309326,172.3210449 323.9382935,182.197998 "/>
<polygon class="st5" points="323.9329224,162.4475555 341.0456848,152.5671539 323.9382935,142.6902008 306.8201294,152.5579987 "/>
<polygon class="st6" points="341.0456848,152.5671539 323.9329224,162.4475555 323.9382935,182.197998 341.0456848,172.3210449 "/>
<polygon class="st4" points="342.8796692,173.3864746 325.7669067,163.4969177 325.7776794,183.259964 342.8850708,193.1369171 "/>
<polygon class="st5" points="342.8796692,173.3864746 359.9924622,163.506073 342.8850708,153.6291199 325.7669067,163.4969177 "/>
<polygon class="st8" points="359.9924622,163.506073 342.8796692,173.3864746 342.8850708,193.1369171 359.9924622,183.259964 "/>
<polygon class="st4" points="304.986145,173.3864746 287.8733521,163.4969177 287.8841553,183.259964 304.9915466,193.1369171 "/>
<polygon class="st5" points="304.986145,173.3864746 322.0989075,163.506073 304.9915466,153.6291199 287.8733521,163.4969177 "/>
<polygon class="st6" points="322.0989075,163.506073 304.986145,173.3864746 304.9915466,193.1369171 322.0989075,183.259964 "/>
<polygon class="st4" points="323.9329224,184.3253937 306.8201294,174.4358368 306.8309326,194.1988983 323.9382935,204.0758362 "/>
<polygon class="st5" points="323.9329224,184.3253937 341.0456848,174.4449921 323.9382935,164.5680389 306.8201294,174.4358368 "/>
<polygon class="st8" points="341.0456848,174.4449921 323.9329224,184.3253937 323.9382935,204.0758362 341.0456848,194.1988983 "/>
<polygon class="st7" points="286.0393677,184.3253937 268.9266052,174.4358368 268.9373779,194.1988983 286.0447693,204.0758362 "/>
<polygon class="st5" points="286.0393677,184.3253937 303.1521606,174.4449921 286.0447693,164.5680389 268.9266052,174.4358368 "/>
<polygon class="st6" points="303.1521606,174.4449921 286.0393677,184.3253937 286.0447693,204.0758362 303.1521606,194.1988983 "/>
<polygon class="st7" points="304.986145,195.2643127 287.8733521,185.3747559 287.8841553,205.1378174 304.9915466,215.0147552 "/>
<polygon class="st5" points="304.986145,195.2643127 322.0989075,185.3839111 304.9915466,175.506958 287.8733521,185.3747559 "/>
<polygon class="st8" points="322.0989075,185.3839111 304.986145,195.2643127 304.9915466,215.0147552 322.0989075,205.1378174 "/>
<polygon class="st0" points="239.9924469,226.725647 179.9924469,261.3666687 239.9924469,296.0076904 299.9924622,261.3666687 "/>
<polygon class="st1" points="299.9924622,266.3666687 299.9924622,271.3666687 294.9924622,274.253418 294.9924622,269.253418 "/>
<polygon class="st1" points="239.9924469,301.0076904 239.9924469,306.0076599 244.9924469,303.1209106 244.9924469,298.1209106 "/>
<polygon class="st2" points="294.9924622,274.253418 290.662323,271.753418 294.9924622,269.253418 "/>
<polygon class="st1" points="272.3530579,282.3241577 272.3530579,287.3241577 267.3530579,290.210907 267.3530579,285.210907 "/>
<polygon class="st2" points="267.3530579,290.210907 263.0229492,287.710907 267.3530579,285.210907 "/>
<polygon class="st1" points="299.9924622,261.3666687 299.9924622,266.3666687 239.9924469,301.0076904 239.9924469,296.0076904 "/>
<polygon class="st2" points="239.9924469,301.0076904 239.9924469,296.0076904 179.9924469,261.3666687 179.9924469,266.3666687 "/>
<polygon class="st2" points="179.9924469,266.3666687 179.9924469,271.3666687 184.9924469,274.253418 184.9924469,269.253418 "/>
<polygon class="st2" points="239.9924469,301.0076904 239.9924469,306.0076599 234.9924469,303.1209106 234.9924469,298.1209106 "/>
<polygon class="st3" points="184.9924469,274.253418 189.3225708,271.753418 184.9924469,269.253418 "/>
<polygon class="st4" points="239.986145,229.6153107 222.8733673,219.725769 222.8841553,239.4888153 239.9915314,249.3657684 "/>
<polygon class="st5" points="239.986145,229.6153107 257.0989075,219.7349243 239.9915314,209.8579712 222.8733673,219.725769 "/>
<polygon class="st6" points="257.0989075,219.7349243 239.986145,229.6153107 239.9915314,249.3657684 257.0989075,239.4888153 "/>
<polygon class="st4" points="221.0393677,240.554245 203.9266052,230.6646881 203.9373932,250.4277344 221.0447693,260.3046875 "/>
<polygon class="st5" points="221.0393677,240.554245 238.1521454,230.6738434 221.0447693,220.7968903 203.9266052,230.6646881 "/>
<polygon class="st6" points="238.1521454,230.6738434 221.0393677,240.554245 221.0447693,260.3046875 238.1521454,250.4277344 "/>
<polygon class="st7" points="202.0926056,251.4931641 184.9798279,241.6036072 184.9906158,261.3666687 202.0980072,271.2436218 "/>
<polygon class="st5" points="202.0926056,251.4931641 219.2053833,241.6127625 202.0980072,231.7358093 184.9798279,241.6036072 "/>
<polygon class="st6" points="219.2053833,241.6127625 202.0926056,251.4931641 202.0980072,271.2436218 219.2053833,261.3666687 "/>
<polygon class="st4" points="258.9329224,240.554245 241.8201294,230.6646881 241.8309174,250.4277344 258.9382935,260.3046875 "/>
<polygon class="st5" points="258.9329224,240.554245 276.0456848,230.6738434 258.9382935,220.7968903 241.8201294,230.6646881 "/>
<polygon class="st6" points="276.0456848,230.6738434 258.9329224,240.554245 258.9382935,260.3046875 276.0456848,250.4277344 "/>
<polygon class="st4" points="277.8796692,251.4931641 260.7669067,241.6036072 260.7776794,261.3666687 277.8850708,271.2436218 "/>
<polygon class="st5" points="277.8796692,251.4931641 294.9924622,241.6127625 277.8850708,231.7358093 260.7669067,241.6036072 "/>
<polygon class="st8" points="294.9924622,241.6127625 277.8796692,251.4931641 277.8850708,271.2436218 294.9924622,261.3666687 "/>
<polygon class="st4" points="239.986145,251.4931641 222.8733673,241.6036072 222.8841553,261.3666687 239.9915314,271.2436218 "/>
<polygon class="st5" points="239.986145,251.4931641 257.0989075,241.6127625 239.9915314,231.7358093 222.8733673,241.6036072 "/>
<polygon class="st6" points="257.0989075,241.6127625 239.986145,251.4931641 239.9915314,271.2436218 257.0989075,261.3666687 "/>
<polygon class="st4" points="258.9329224,262.4320679 241.8201294,252.5425262 241.8309174,272.3055725 258.9382935,282.1825256 "/>
<polygon class="st5" points="258.9329224,262.4320679 276.0456848,252.5516815 258.9382935,242.6747284 241.8201294,252.5425262 "/>
<polygon class="st8" points="276.0456848,252.5516815 258.9329224,262.4320679 258.9382935,282.1825256 276.0456848,272.3055725 "/>
<polygon class="st7" points="221.0393677,262.4320679 203.9266052,252.5425262 203.9373932,272.3055725 221.0447693,282.1825256 "/>
<polygon class="st5" points="221.0393677,262.4320679 238.1521454,252.5516815 221.0447693,242.6747284 203.9266052,252.5425262 "/>
<polygon class="st6" points="238.1521454,252.5516815 221.0393677,262.4320679 221.0447693,282.1825256 238.1521454,272.3055725 "/>
<polygon class="st7" points="239.986145,273.3710022 222.8733673,263.4814453 222.8841553,283.2445068 239.9915314,293.12146 "/>
<polygon class="st5" points="239.986145,273.3710022 257.0989075,263.4906006 239.9915314,253.6136475 222.8733673,263.4814453 "/>
<polygon class="st8" points="257.0989075,263.4906006 239.986145,273.3710022 239.9915314,293.12146 257.0989075,283.2445068 "/>
<polygon class="st2" points="207.6318207,282.3241577 207.6318207,287.3241577 212.6318207,290.210907 212.6318207,285.210907 "/>
<polygon class="st3" points="212.6318207,290.210907 216.9619446,287.710907 212.6318207,285.210907 "/>
<polygon class="st4" points="239.986145,209.305481 222.8733673,199.4159393 222.8841553,219.1789856 239.9915314,229.0559387 "/>
<polygon class="st5" points="239.986145,209.305481 257.0989075,199.4250793 239.9915314,189.5481415 222.8733673,199.4159393 "/>
<polygon class="st6" points="257.0989075,199.4250793 239.986145,209.305481 239.9915314,229.0559387 257.0989075,219.1789856 "/>
<polygon class="st4" points="221.0393677,220.2444 203.9266052,210.3548584 203.9373932,230.1179047 221.0447693,239.9948578 "/>
<polygon class="st5" points="221.0393677,220.2444 238.1521454,210.3640137 221.0447693,200.4870605 203.9266052,210.3548584 "/>
<polygon class="st6" points="238.1521454,210.3640137 221.0393677,220.2444 221.0447693,239.9948578 238.1521454,230.1179047 "/>
<polygon class="st7" points="202.0926056,231.1833191 184.9798279,221.2937775 184.9906158,241.0568237 202.0980072,250.9337769 "/>
<polygon class="st5" points="202.0926056,231.1833191 219.2053833,221.3029327 202.0980072,211.4259796 184.9798279,221.2937775 "/>
<polygon class="st6" points="219.2053833,221.3029327 202.0926056,231.1833191 202.0980072,250.9337769 219.2053833,241.0568237 "/>
<polygon class="st4" points="258.9329224,220.2444 241.8201294,210.3548584 241.8309174,230.1179047 258.9382935,239.9948578 "/>
<polygon class="st5" points="258.9329224,220.2444 276.0456848,210.3640137 258.9382935,200.4870605 241.8201294,210.3548584 "/>
<polygon class="st6" points="276.0456848,210.3640137 258.9329224,220.2444 258.9382935,239.9948578 276.0456848,230.1179047 "/>
<polygon class="st4" points="277.8796692,231.1833191 260.7669067,221.2937775 260.7776794,241.0568237 277.8850708,250.9337769 "/>
<polygon class="st5" points="277.8796692,231.1833191 294.9924622,221.3029327 277.8850708,211.4259796 260.7669067,221.2937775 "/>
<polygon class="st8" points="294.9924622,221.3029327 277.8796692,231.1833191 277.8850708,250.9337769 294.9924622,241.0568237 "/>
<polygon class="st4" points="239.986145,231.1833191 222.8733673,221.2937775 222.8841553,241.0568237 239.9915314,250.9337769 "/>
<polygon class="st5" points="239.986145,231.1833191 257.0989075,221.3029327 239.9915314,211.4259796 222.8733673,221.2937775 "/>
<polygon class="st6" points="257.0989075,221.3029327 239.986145,231.1833191 239.9915314,250.9337769 257.0989075,241.0568237 "/>
<polygon class="st4" points="258.9329224,242.1222534 241.8201294,232.2326965 241.8309174,251.9957428 258.9382935,261.8727112 "/>
<polygon class="st5" points="258.9329224,242.1222534 276.0456848,232.2418518 258.9382935,222.3648987 241.8201294,232.2326965 "/>
<polygon class="st8" points="276.0456848,232.2418518 258.9329224,242.1222534 258.9382935,261.8727112 276.0456848,251.9957428 "/>
<polygon class="st7" points="221.0393677,242.1222534 203.9266052,232.2326965 203.9373932,251.9957428 221.0447693,261.8727112 "/>
<polygon class="st5" points="221.0393677,242.1222534 238.1521454,232.2418518 221.0447693,222.3648987 203.9266052,232.2326965 "/>
<polygon class="st6" points="238.1521454,232.2418518 221.0393677,242.1222534 221.0447693,261.8727112 238.1521454,251.9957428 "/>
<polygon class="st7" points="239.986145,253.0611725 222.8733673,243.1716156 222.8841553,262.9346619 239.9915314,272.811615 "/>
<polygon class="st5" points="239.986145,253.0611725 257.0989075,243.1807709 239.9915314,233.3038177 222.8733673,243.1716156 "/>
<polygon class="st8" points="257.0989075,243.1807709 239.986145,253.0611725 239.9915314,272.811615 257.0989075,262.9346619 "/>
<polygon class="st4" points="239.986145,189.0363922 222.8733673,179.1468506 222.8841553,198.9098969 239.9915314,208.78685 "/>
<polygon class="st5" points="239.986145,189.0363922 257.0989075,179.1559906 239.9915314,169.2790527 222.8733673,179.1468506 "/>
<polygon class="st6" points="257.0989075,179.1559906 239.986145,189.0363922 239.9915314,208.78685 257.0989075,198.9098969 "/>
<polygon class="st4" points="221.0393677,199.9753113 203.9266052,190.0857697 203.9373932,209.8488159 221.0447693,219.725769 "/>
<polygon class="st5" points="221.0393677,199.9753113 238.1521454,190.0949097 221.0447693,180.2179718 203.9266052,190.0857697 "/>
<polygon class="st6" points="238.1521454,190.0949097 221.0393677,199.9753113 221.0447693,219.725769 238.1521454,209.8488159 "/>
<polygon class="st7" points="202.0926056,210.9142303 184.9798279,201.0246887 184.9906158,220.787735 202.0980072,230.6646881 "/>
<polygon class="st5" points="202.0926056,210.9142303 219.2053833,201.033844 202.0980072,191.1568909 184.9798279,201.0246887 "/>
<polygon class="st6" points="219.2053833,201.033844 202.0926056,210.9142303 202.0980072,230.6646881 219.2053833,220.787735 "/>
<polygon class="st4" points="258.9329224,199.9753113 241.8201294,190.0857697 241.8309174,209.8488159 258.9382935,219.725769 "/>
<polygon class="st5" points="258.9329224,199.9753113 276.0456848,190.0949097 258.9382935,180.2179718 241.8201294,190.0857697 "/>
<polygon class="st6" points="276.0456848,190.0949097 258.9329224,199.9753113 258.9382935,219.725769 276.0456848,209.8488159 "/>
<polygon class="st4" points="277.8796692,210.9142303 260.7669067,201.0246887 260.7776794,220.787735 277.8850708,230.6646881 "/>
<polygon class="st5" points="277.8796692,210.9142303 294.9924622,201.033844 277.8850708,191.1568909 260.7669067,201.0246887 "/>
<polygon class="st8" points="294.9924622,201.033844 277.8796692,210.9142303 277.8850708,230.6646881 294.9924622,220.787735 "/>
<polygon class="st4" points="239.986145,210.9142303 222.8733673,201.0246887 222.8841553,220.787735 239.9915314,230.6646881 "/>
<polygon class="st5" points="239.986145,210.9142303 257.0989075,201.033844 239.9915314,191.1568909 222.8733673,201.0246887 "/>
<polygon class="st6" points="257.0989075,201.033844 239.986145,210.9142303 239.9915314,230.6646881 257.0989075,220.787735 "/>
<polygon class="st4" points="258.9329224,221.8531647 241.8201294,211.9636078 241.8309174,231.7266541 258.9382935,241.6036072 "/>
<polygon class="st5" points="258.9329224,221.8531647 276.0456848,211.9727631 258.9382935,202.0958099 241.8201294,211.9636078 "/>
<polygon class="st8" points="276.0456848,211.9727631 258.9329224,221.8531647 258.9382935,241.6036072 276.0456848,231.7266541 "/>
<polygon class="st7" points="221.0393677,221.8531647 203.9266052,211.9636078 203.9373932,231.7266541 221.0447693,241.6036072 "/>
<polygon class="st5" points="221.0393677,221.8531647 238.1521454,211.9727631 221.0447693,202.0958099 203.9266052,211.9636078 "/>
<polygon class="st6" points="238.1521454,211.9727631 221.0393677,221.8531647 221.0447693,241.6036072 238.1521454,231.7266541 "/>
<polygon class="st7" points="239.986145,232.7920837 222.8733673,222.9025269 222.8841553,242.6655731 239.9915314,252.5425262 "/>
<polygon class="st5" points="239.986145,232.7920837 257.0989075,222.9116821 239.9915314,213.034729 222.8733673,222.9025269 "/>
<polygon class="st8" points="257.0989075,222.9116821 239.986145,232.7920837 239.9915314,252.5425262 257.0989075,242.6655731 "/>
<polygon class="st0" points="239.9924469,226.725647 179.9924469,261.3666687 239.9924469,296.0076904 299.9924622,261.3666687 "/>
<polygon class="st1" points="299.9924622,266.3666687 299.9924622,271.3666687 294.9924622,274.253418 294.9924622,269.253418 "/>
<polygon class="st1" points="239.9924469,301.0076904 239.9924469,306.0076599 244.9924469,303.1209106 244.9924469,298.1209106 "/>
<polygon class="st2" points="294.9924622,274.253418 290.662323,271.753418 294.9924622,269.253418 "/>
<polygon class="st1" points="272.3530579,282.3241577 272.3530579,287.3241577 267.3530579,290.210907 267.3530579,285.210907 "/>
<polygon class="st2" points="267.3530579,290.210907 263.0229492,287.710907 267.3530579,285.210907 "/>
<polygon class="st1" points="299.9924622,261.3666687 299.9924622,266.3666687 239.9924469,301.0076904 239.9924469,296.0076904 "/>
<polygon class="st2" points="239.9924469,301.0076904 239.9924469,296.0076904 179.9924469,261.3666687 179.9924469,266.3666687 "/>
<polygon class="st2" points="179.9924469,266.3666687 179.9924469,271.3666687 184.9924469,274.253418 184.9924469,269.253418 "/>
<polygon class="st2" points="239.9924469,301.0076904 239.9924469,306.0076599 234.9924469,303.1209106 234.9924469,298.1209106 "/>
<polygon class="st3" points="184.9924469,274.253418 189.3225708,271.753418 184.9924469,269.253418 "/>
<polygon class="st4" points="239.986145,229.6153107 222.8733673,219.725769 222.8841553,239.4888153 239.9915314,249.3657684 "/>
<polygon class="st5" points="239.986145,229.6153107 257.0989075,219.7349243 239.9915314,209.8579712 222.8733673,219.725769 "/>
<polygon class="st6" points="257.0989075,219.7349243 239.986145,229.6153107 239.9915314,249.3657684 257.0989075,239.4888153 "/>
<polygon class="st4" points="221.0393677,240.554245 203.9266052,230.6646881 203.9373932,250.4277344 221.0447693,260.3046875 "/>
<polygon class="st5" points="221.0393677,240.554245 238.1521454,230.6738434 221.0447693,220.7968903 203.9266052,230.6646881 "/>
<polygon class="st6" points="238.1521454,230.6738434 221.0393677,240.554245 221.0447693,260.3046875 238.1521454,250.4277344 "/>
<polygon class="st7" points="202.0926056,251.4931641 184.9798279,241.6036072 184.9906158,261.3666687 202.0980072,271.2436218 "/>
<polygon class="st5" points="202.0926056,251.4931641 219.2053833,241.6127625 202.0980072,231.7358093 184.9798279,241.6036072 "/>
<polygon class="st6" points="219.2053833,241.6127625 202.0926056,251.4931641 202.0980072,271.2436218 219.2053833,261.3666687 "/>
<polygon class="st4" points="258.9329224,240.554245 241.8201294,230.6646881 241.8309174,250.4277344 258.9382935,260.3046875 "/>
<polygon class="st5" points="258.9329224,240.554245 276.0456848,230.6738434 258.9382935,220.7968903 241.8201294,230.6646881 "/>
<polygon class="st6" points="276.0456848,230.6738434 258.9329224,240.554245 258.9382935,260.3046875 276.0456848,250.4277344 "/>
<polygon class="st4" points="277.8796692,251.4931641 260.7669067,241.6036072 260.7776794,261.3666687 277.8850708,271.2436218 "/>
<polygon class="st5" points="277.8796692,251.4931641 294.9924622,241.6127625 277.8850708,231.7358093 260.7669067,241.6036072 "/>
<polygon class="st8" points="294.9924622,241.6127625 277.8796692,251.4931641 277.8850708,271.2436218 294.9924622,261.3666687 "/>
<polygon class="st4" points="239.986145,251.4931641 222.8733673,241.6036072 222.8841553,261.3666687 239.9915314,271.2436218 "/>
<polygon class="st5" points="239.986145,251.4931641 257.0989075,241.6127625 239.9915314,231.7358093 222.8733673,241.6036072 "/>
<polygon class="st6" points="257.0989075,241.6127625 239.986145,251.4931641 239.9915314,271.2436218 257.0989075,261.3666687 "/>
<polygon class="st4" points="258.9329224,262.4320679 241.8201294,252.5425262 241.8309174,272.3055725 258.9382935,282.1825256 "/>
<polygon class="st5" points="258.9329224,262.4320679 276.0456848,252.5516815 258.9382935,242.6747284 241.8201294,252.5425262 "/>
<polygon class="st8" points="276.0456848,252.5516815 258.9329224,262.4320679 258.9382935,282.1825256 276.0456848,272.3055725 "/>
<polygon class="st7" points="221.0393677,262.4320679 203.9266052,252.5425262 203.9373932,272.3055725 221.0447693,282.1825256 "/>
<polygon class="st5" points="221.0393677,262.4320679 238.1521454,252.5516815 221.0447693,242.6747284 203.9266052,252.5425262 "/>
<polygon class="st6" points="238.1521454,252.5516815 221.0393677,262.4320679 221.0447693,282.1825256 238.1521454,272.3055725 "/>
<polygon class="st7" points="239.986145,273.3710022 222.8733673,263.4814453 222.8841553,283.2445068 239.9915314,293.12146 "/>
<polygon class="st5" points="239.986145,273.3710022 257.0989075,263.4906006 239.9915314,253.6136475 222.8733673,263.4814453 "/>
<polygon class="st8" points="257.0989075,263.4906006 239.986145,273.3710022 239.9915314,293.12146 257.0989075,283.2445068 "/>
<polygon class="st2" points="207.6318207,282.3241577 207.6318207,287.3241577 212.6318207,290.210907 212.6318207,285.210907 "/>
<polygon class="st3" points="212.6318207,290.210907 216.9619446,287.710907 212.6318207,285.210907 "/>
<polygon class="st4" points="239.986145,209.305481 222.8733673,199.4159393 222.8841553,219.1789856 239.9915314,229.0559387 "/>
<polygon class="st5" points="239.986145,209.305481 257.0989075,199.4250793 239.9915314,189.5481415 222.8733673,199.4159393 "/>
<polygon class="st6" points="257.0989075,199.4250793 239.986145,209.305481 239.9915314,229.0559387 257.0989075,219.1789856 "/>
<polygon class="st4" points="221.0393677,220.2444 203.9266052,210.3548584 203.9373932,230.1179047 221.0447693,239.9948578 "/>
<polygon class="st5" points="221.0393677,220.2444 238.1521454,210.3640137 221.0447693,200.4870605 203.9266052,210.3548584 "/>
<polygon class="st6" points="238.1521454,210.3640137 221.0393677,220.2444 221.0447693,239.9948578 238.1521454,230.1179047 "/>
<polygon class="st7" points="202.0926056,231.1833191 184.9798279,221.2937775 184.9906158,241.0568237 202.0980072,250.9337769 "/>
<polygon class="st5" points="202.0926056,231.1833191 219.2053833,221.3029327 202.0980072,211.4259796 184.9798279,221.2937775 "/>
<polygon class="st6" points="219.2053833,221.3029327 202.0926056,231.1833191 202.0980072,250.9337769 219.2053833,241.0568237 "/>
<polygon class="st4" points="258.9329224,220.2444 241.8201294,210.3548584 241.8309174,230.1179047 258.9382935,239.9948578 "/>
<polygon class="st5" points="258.9329224,220.2444 276.0456848,210.3640137 258.9382935,200.4870605 241.8201294,210.3548584 "/>
<polygon class="st6" points="276.0456848,210.3640137 258.9329224,220.2444 258.9382935,239.9948578 276.0456848,230.1179047 "/>
<polygon class="st4" points="277.8796692,231.1833191 260.7669067,221.2937775 260.7776794,241.0568237 277.8850708,250.9337769 "/>
<polygon class="st5" points="277.8796692,231.1833191 294.9924622,221.3029327 277.8850708,211.4259796 260.7669067,221.2937775 "/>
<polygon class="st8" points="294.9924622,221.3029327 277.8796692,231.1833191 277.8850708,250.9337769 294.9924622,241.0568237 "/>
<polygon class="st4" points="239.986145,231.1833191 222.8733673,221.2937775 222.8841553,241.0568237 239.9915314,250.9337769 "/>
<polygon class="st5" points="239.986145,231.1833191 257.0989075,221.3029327 239.9915314,211.4259796 222.8733673,221.2937775 "/>
<polygon class="st6" points="257.0989075,221.3029327 239.986145,231.1833191 239.9915314,250.9337769 257.0989075,241.0568237 "/>
<polygon class="st4" points="258.9329224,242.1222534 241.8201294,232.2326965 241.8309174,251.9957428 258.9382935,261.8727112 "/>
<polygon class="st5" points="258.9329224,242.1222534 276.0456848,232.2418518 258.9382935,222.3648987 241.8201294,232.2326965 "/>
<polygon class="st8" points="276.0456848,232.2418518 258.9329224,242.1222534 258.9382935,261.8727112 276.0456848,251.9957428 "/>
<polygon class="st7" points="221.0393677,242.1222534 203.9266052,232.2326965 203.9373932,251.9957428 221.0447693,261.8727112 "/>
<polygon class="st5" points="221.0393677,242.1222534 238.1521454,232.2418518 221.0447693,222.3648987 203.9266052,232.2326965 "/>
<polygon class="st6" points="238.1521454,232.2418518 221.0393677,242.1222534 221.0447693,261.8727112 238.1521454,251.9957428 "/>
<polygon class="st7" points="239.986145,253.0611725 222.8733673,243.1716156 222.8841553,262.9346619 239.9915314,272.811615 "/>
<polygon class="st5" points="239.986145,253.0611725 257.0989075,243.1807709 239.9915314,233.3038177 222.8733673,243.1716156 "/>
<polygon class="st8" points="257.0989075,243.1807709 239.986145,253.0611725 239.9915314,272.811615 257.0989075,262.9346619 "/>
<polygon class="st4" points="239.986145,189.0363922 222.8733673,179.1468506 222.8841553,198.9098969 239.9915314,208.78685 "/>
<polygon class="st5" points="239.986145,189.0363922 257.0989075,179.1559906 239.9915314,169.2790527 222.8733673,179.1468506 "/>
<polygon class="st6" points="257.0989075,179.1559906 239.986145,189.0363922 239.9915314,208.78685 257.0989075,198.9098969 "/>
<polygon class="st4" points="221.0393677,199.9753113 203.9266052,190.0857697 203.9373932,209.8488159 221.0447693,219.725769 "/>
<polygon class="st5" points="221.0393677,199.9753113 238.1521454,190.0949097 221.0447693,180.2179718 203.9266052,190.0857697 "/>
<polygon class="st6" points="238.1521454,190.0949097 221.0393677,199.9753113 221.0447693,219.725769 238.1521454,209.8488159 "/>
<polygon class="st7" points="202.0926056,210.9142303 184.9798279,201.0246887 184.9906158,220.787735 202.0980072,230.6646881 "/>
<polygon class="st5" points="202.0926056,210.9142303 219.2053833,201.033844 202.0980072,191.1568909 184.9798279,201.0246887 "/>
<polygon class="st6" points="219.2053833,201.033844 202.0926056,210.9142303 202.0980072,230.6646881 219.2053833,220.787735 "/>
<polygon class="st4" points="258.9329224,199.9753113 241.8201294,190.0857697 241.8309174,209.8488159 258.9382935,219.725769 "/>
<polygon class="st5" points="258.9329224,199.9753113 276.0456848,190.0949097 258.9382935,180.2179718 241.8201294,190.0857697 "/>
<polygon class="st6" points="276.0456848,190.0949097 258.9329224,199.9753113 258.9382935,219.725769 276.0456848,209.8488159 "/>
<polygon class="st4" points="277.8796692,210.9142303 260.7669067,201.0246887 260.7776794,220.787735 277.8850708,230.6646881 "/>
<polygon class="st5" points="277.8796692,210.9142303 294.9924622,201.033844 277.8850708,191.1568909 260.7669067,201.0246887 "/>
<polygon class="st8" points="294.9924622,201.033844 277.8796692,210.9142303 277.8850708,230.6646881 294.9924622,220.787735 "/>
<polygon class="st4" points="239.986145,210.9142303 222.8733673,201.0246887 222.8841553,220.787735 239.9915314,230.6646881 "/>
<polygon class="st5" points="239.986145,210.9142303 257.0989075,201.033844 239.9915314,191.1568909 222.8733673,201.0246887 "/>
<polygon class="st6" points="257.0989075,201.033844 239.986145,210.9142303 239.9915314,230.6646881 257.0989075,220.787735 "/>
<polygon class="st4" points="258.9329224,221.8531647 241.8201294,211.9636078 241.8309174,231.7266541 258.9382935,241.6036072 "/>
<polygon class="st5" points="258.9329224,221.8531647 276.0456848,211.9727631 258.9382935,202.0958099 241.8201294,211.9636078 "/>
<polygon class="st8" points="276.0456848,211.9727631 258.9329224,221.8531647 258.9382935,241.6036072 276.0456848,231.7266541 "/>
<polygon class="st7" points="221.0393677,221.8531647 203.9266052,211.9636078 203.9373932,231.7266541 221.0447693,241.6036072 "/>
<polygon class="st5" points="221.0393677,221.8531647 238.1521454,211.9727631 221.0447693,202.0958099 203.9266052,211.9636078 "/>
<polygon class="st6" points="238.1521454,211.9727631 221.0393677,221.8531647 221.0447693,241.6036072 238.1521454,231.7266541 "/>
<polygon class="st7" points="239.986145,232.7920837 222.8733673,222.9025269 222.8841553,242.6655731 239.9915314,252.5425262 "/>
<polygon class="st5" points="239.986145,232.7920837 257.0989075,222.9116821 239.9915314,213.034729 222.8733673,222.9025269 "/>
<polygon class="st8" points="257.0989075,222.9116821 239.986145,232.7920837 239.9915314,252.5425262 257.0989075,242.6655731 "/>
</svg>
