<?xml version="1.0" encoding="utf-8"?>
<!-- Generator: Adobe Illustrator 22.0.0, SVG Export Plug-In . SVG Version: 6.00 Build 0)  -->
<svg version="1.1" id="Paletts" xmlns="http://www.w3.org/2000/svg" xmlns:xlink="http://www.w3.org/1999/xlink" x="0px" y="0px"
	 viewBox="0 0 480 438.8" style="enable-background:new 0 0 480 438.8;" xml:space="preserve">
<style type="text/css">
	.st0{fill:#497A86;}
	.st1{fill:#5E94A1;}
	.st2{fill:#3F6D79;}
	.st3{fill:#35606C;}
	.st4{fill:#89786D;}
	.st5{fill:#C1A791;}
	.st6{fill:#9B8779;}
	.st7{fill:#AA9383;}
	.st8{fill:#CEB399;}
</style>
<polygon class="st0" points="240,157.4 198.6,181.3 240,205.2 281.4,181.3 "/>
<polygon class="st1" points="281.4,184.8 281.4,188.2 277.9,190.2 277.9,186.8 "/>
<polygon class="st1" points="240,208.7 240,212.1 243.4,210.1 243.4,206.7 "/>
<polygon class="st2" points="277.9,190.2 275,188.5 277.9,186.8 "/>
<polygon class="st1" points="262.3,195.8 262.3,199.2 258.9,201.2 258.9,197.8 "/>
<polygon class="st2" points="258.9,201.2 255.9,199.5 258.9,197.8 "/>
<polygon class="st1" points="281.4,181.3 281.4,184.8 240,208.7 240,205.2 "/>
<polygon class="st2" points="240,208.7 240,205.2 198.6,181.3 198.6,184.8 "/>
<polygon class="st2" points="198.6,184.8 198.6,188.2 202,190.2 202,186.8 "/>
<polygon class="st2" points="240,208.7 240,212.1 236.5,210.1 236.5,206.7 "/>
<polygon class="st3" points="202,190.2 205,188.5 202,186.8 "/>
<polygon class="st4" points="240,159.4 228.2,152.6 228.2,166.2 240,173 "/>
<polygon class="st5" points="240,159.4 251.8,152.6 240,145.8 228.2,152.6 "/>
<polygon class="st6" points="251.8,152.6 240,159.4 240,173 251.8,166.2 "/>
<polygon class="st4" points="226.9,167 215.1,160.1 215.1,173.8 226.9,180.6 "/>
<polygon class="st5" points="226.9,167 238.7,160.1 226.9,153.3 215.1,160.1 "/>
<polygon class="st6" points="238.7,160.1 226.9,167 226.9,180.6 238.7,173.8 "/>
<polygon class="st7" points="213.8,174.5 202,167.7 202,181.3 213.8,188.1 "/>
<polygon class="st5" points="213.8,174.5 225.6,167.7 213.8,160.9 202,167.7 "/>
<polygon class="st6" points="225.6,167.7 213.8,174.5 213.8,188.1 225.6,181.3 "/>
<polygon class="st4" points="253.1,167 241.3,160.1 241.3,173.8 253.1,180.6 "/>
<polygon class="st5" points="253.1,167 264.9,160.1 253.1,153.3 241.3,160.1 "/>
<polygon class="st6" points="264.9,160.1 253.1,167 253.1,180.6 264.9,173.8 "/>
<polygon class="st4" points="266.1,174.5 254.3,167.7 254.3,181.3 266.1,188.1 "/>
<polygon class="st5" points="266.1,174.5 277.9,167.7 266.1,160.9 254.3,167.7 "/>
<polygon class="st8" points="277.9,167.7 266.1,174.5 266.1,188.1 277.9,181.3 "/>
<polygon class="st4" points="240,174.5 228.2,167.7 228.2,181.3 240,188.1 "/>
<polygon class="st5" points="240,174.5 251.8,167.7 240,160.9 228.2,167.7 "/>
<polygon class="st6" points="251.8,167.7 240,174.5 240,188.1 251.8,181.3 "/>
<polygon class="st4" points="253.1,182.1 241.3,175.2 241.3,188.9 253.1,195.7 "/>
<polygon class="st5" points="253.1,182.1 264.9,175.2 253.1,168.4 241.3,175.2 "/>
<polygon class="st8" points="264.9,175.2 253.1,182.1 253.1,195.7 264.9,188.9 "/>
<polygon class="st7" points="226.9,182.1 215.1,175.2 215.1,188.9 226.9,195.7 "/>
<polygon class="st5" points="226.9,182.1 238.7,175.2 226.9,168.4 215.1,175.2 "/>
<polygon class="st6" points="238.7,175.2 226.9,182.1 226.9,195.7 238.7,188.9 "/>
<polygon class="st7" points="240,189.6 228.2,182.8 228.2,196.4 240,203.2 "/>
<polygon class="st5" points="240,189.6 251.8,182.8 240,176 228.2,182.8 "/>
<polygon class="st8" points="251.8,182.8 240,189.6 240,203.2 251.8,196.4 "/>
<polygon class="st2" points="217.7,195.8 217.7,199.2 221.1,201.2 221.1,197.8 "/>
<polygon class="st3" points="221.1,201.2 224.1,199.5 221.1,197.8 "/>
<polygon class="st4" points="240,145.4 228.2,138.6 228.2,152.2 240,159 "/>
<polygon class="st5" points="240,145.4 251.8,138.6 240,131.8 228.2,138.6 "/>
<polygon class="st6" points="251.8,138.6 240,145.4 240,159 251.8,152.2 "/>
<polygon class="st4" points="226.9,153 215.1,146.1 215.1,159.8 226.9,166.6 "/>
<polygon class="st5" points="226.9,153 238.7,146.1 226.9,139.3 215.1,146.1 "/>
<polygon class="st6" points="238.7,146.1 226.9,153 226.9,166.6 238.7,159.8 "/>
<polygon class="st7" points="213.8,160.5 202,153.7 202,167.3 213.8,174.1 "/>
<polygon class="st5" points="213.8,160.5 225.6,153.7 213.8,146.9 202,153.7 "/>
<polygon class="st6" points="225.6,153.7 213.8,160.5 213.8,174.1 225.6,167.3 "/>
<polygon class="st4" points="253.1,153 241.3,146.1 241.3,159.8 253.1,166.6 "/>
<polygon class="st5" points="253.1,153 264.9,146.1 253.1,139.3 241.3,146.1 "/>
<polygon class="st6" points="264.9,146.1 253.1,153 253.1,166.6 264.9,159.8 "/>
<polygon class="st4" points="266.1,160.5 254.3,153.7 254.3,167.3 266.1,174.1 "/>
<polygon class="st5" points="266.1,160.5 277.9,153.7 266.1,146.9 254.3,153.7 "/>
<polygon class="st8" points="277.9,153.7 266.1,160.5 266.1,174.1 277.9,167.3 "/>
<polygon class="st4" points="240,160.5 228.2,153.7 228.2,167.3 240,174.1 "/>
<polygon class="st5" points="240,160.5 251.8,153.7 240,146.9 228.2,153.7 "/>
<polygon class="st6" points="251.8,153.7 240,160.5 240,174.1 251.8,167.3 "/>
<polygon class="st4" points="253.1,168 241.3,161.2 241.3,174.9 253.1,181.7 "/>
<polygon class="st5" points="253.1,168 264.9,161.2 253.1,154.4 241.3,161.2 "/>
<polygon class="st8" points="264.9,161.2 253.1,168 253.1,181.7 264.9,174.9 "/>
<polygon class="st7" points="226.9,168 215.1,161.2 215.1,174.9 226.9,181.7 "/>
<polygon class="st5" points="226.9,168 238.7,161.2 226.9,154.4 215.1,161.2 "/>
<polygon class="st6" points="238.7,161.2 226.9,168 226.9,181.7 238.7,174.9 "/>
<polygon class="st7" points="240,175.6 228.2,168.8 228.2,182.4 240,189.2 "/>
<polygon class="st5" points="240,175.6 251.8,168.8 240,162 228.2,168.8 "/>
<polygon class="st8" points="251.8,168.8 240,175.6 240,189.2 251.8,182.4 "/>
<polygon class="st4" points="240,131.4 228.2,124.6 228.2,138.2 240,145 "/>
<polygon class="st5" points="240,131.4 251.8,124.6 240,117.8 228.2,124.6 "/>
<polygon class="st6" points="251.8,124.6 240,131.4 240,145 251.8,138.2 "/>
<polygon class="st4" points="226.9,139 215.1,132.1 215.1,145.8 226.9,152.6 "/>
<polygon class="st5" points="226.9,139 238.7,132.1 226.9,125.3 215.1,132.1 "/>
<polygon class="st6" points="238.7,132.1 226.9,139 226.9,152.6 238.7,145.8 "/>
<polygon class="st7" points="213.8,146.5 202,139.7 202,153.3 213.8,160.1 "/>
<polygon class="st5" points="213.8,146.5 225.6,139.7 213.8,132.9 202,139.7 "/>
<polygon class="st6" points="225.6,139.7 213.8,146.5 213.8,160.1 225.6,153.3 "/>
<polygon class="st4" points="253.1,139 241.3,132.1 241.3,145.8 253.1,152.6 "/>
<polygon class="st5" points="253.1,139 264.9,132.1 253.1,125.3 241.3,132.1 "/>
<polygon class="st6" points="264.9,132.1 253.1,139 253.1,152.6 264.9,145.8 "/>
<polygon class="st4" points="266.1,146.5 254.3,139.7 254.3,153.3 266.1,160.1 "/>
<polygon class="st5" points="266.1,146.5 277.9,139.7 266.1,132.9 254.3,139.7 "/>
<polygon class="st8" points="277.9,139.7 266.1,146.5 266.1,160.1 277.9,153.3 "/>
<polygon class="st4" points="240,146.5 228.2,139.7 228.2,153.3 240,160.1 "/>
<polygon class="st5" points="240,146.5 251.8,139.7 240,132.9 228.2,139.7 "/>
<polygon class="st6" points="251.8,139.7 240,146.5 240,160.1 251.8,153.3 "/>
<polygon class="st4" points="253.1,154.1 241.3,147.2 241.3,160.9 253.1,167.7 "/>
<polygon class="st5" points="253.1,154.1 264.9,147.2 253.1,140.4 241.3,147.2 "/>
<polygon class="st8" points="264.9,147.2 253.1,154.1 253.1,167.7 264.9,160.9 "/>
<polygon class="st7" points="226.9,154.1 215.1,147.2 215.1,160.9 226.9,167.7 "/>
<polygon class="st5" points="226.9,154.1 238.7,147.2 226.9,140.4 215.1,147.2 "/>
<polygon class="st6" points="238.7,147.2 226.9,154.1 226.9,167.7 238.7,160.9 "/>
<polygon class="st7" points="240,161.6 228.2,154.8 228.2,168.4 240,175.2 "/>
<polygon class="st5" points="240,161.6 251.8,154.8 240,148 228.2,154.8 "/>
<polygon class="st8" points="251.8,154.8 240,161.6 240,175.2 251.8,168.4 "/>
</svg>
