<?xml version="1.0" encoding="utf-8"?>
<!-- Generator: Adobe Illustrator 22.0.0, SVG Export Plug-In . SVG Version: 6.00 Build 0)  -->
<svg version="1.1" id="Shelf_x5F_left" xmlns="http://www.w3.org/2000/svg" xmlns:xlink="http://www.w3.org/1999/xlink" x="0px"
	 y="0px" viewBox="0 0 480 438.8" style="enable-background:new 0 0 480 438.8;" xml:space="preserve">
<style type="text/css">
	.st0{fill:#7DBBC9;}
	.st1{fill:#548794;}
	.st2{fill:#497A86;}
	.st3{fill:#3F6D79;}
	.st4{fill:#AA9383;}
	.st5{fill:#C1A791;}
	.st6{fill:#CEB399;}
	.st7{fill:#73AEBC;}
</style>
<path class="st0" d="M80,138.6V254l160-92.4V46.2L80,138.6z M236.9,160l-154,88.9V140.4l154-88.9V160z"/>
<polygon class="st1" points="80,254 80,138.6 100,150.1 100,265.6 "/>
<polygon class="st2" points="257,171.5 257,62.9 236.9,74.6 236.9,160 "/>
<polygon class="st1" points="236.9,156.6 257,168 103,256.9 103,233.8 "/>
<polygon class="st0" points="103,256.9 103,260.4 257,171.5 257,168 "/>
<polygon class="st3" points="257,175 254,173.2 257,171.5 "/>
<polygon class="st4" points="238.4,157.3 221.3,147.4 221.3,167.2 238.4,177.1 "/>
<polygon class="st5" points="238.4,157.3 255.5,147.4 238.4,137.5 221.3,147.4 "/>
<polygon class="st6" points="255.5,147.4 238.4,157.3 238.4,177.1 255.5,167.2 "/>
<polygon class="st4" points="175.5,193.5 158.3,183.7 158.3,203.4 175.5,213.3 "/>
<polygon class="st5" points="175.5,193.5 192.6,183.7 175.5,173.8 158.3,183.7 "/>
<polygon class="st6" points="192.6,183.7 175.5,193.5 175.5,213.3 192.6,203.4 "/>
<polygon class="st4" points="157.8,203.8 140.6,193.9 140.7,213.6 157.8,223.5 "/>
<polygon class="st5" points="157.8,203.8 174.9,193.9 157.8,184 140.6,193.9 "/>
<polygon class="st6" points="174.9,193.9 157.8,203.8 157.8,223.5 174.9,213.6 "/>
<polygon class="st1" points="236.9,120.4 257,131.8 103,220.8 103,197.7 "/>
<polygon class="st0" points="103,220.8 103,224.2 257,135.3 257,131.8 "/>
<polygon class="st4" points="228,127.1 210.9,117.2 210.9,137 228,146.8 "/>
<polygon class="st5" points="228,127.1 245.1,117.2 228,107.3 210.9,117.2 "/>
<polygon class="st6" points="245.1,117.2 228,127.1 228,146.8 245.1,137 "/>
<polygon class="st4" points="210.3,137.3 193.2,127.4 193.2,147.2 210.3,157.1 "/>
<polygon class="st5" points="210.3,137.3 227.4,127.4 210.3,117.6 193.2,127.4 "/>
<polygon class="st6" points="227.4,127.4 210.3,137.3 210.3,157.1 227.4,147.2 "/>
<polygon class="st4" points="176.1,156.8 159,147 159,166.7 176.1,176.6 "/>
<polygon class="st5" points="176.1,156.8 193.2,147 176.1,137.1 159,147 "/>
<polygon class="st6" points="193.2,147 176.1,156.8 176.1,176.6 193.2,166.7 "/>
<polygon class="st4" points="158.4,167.1 141.3,157.2 141.3,176.9 158.4,186.8 "/>
<polygon class="st5" points="158.4,167.1 175.5,157.2 158.4,147.3 141.3,157.2 "/>
<polygon class="st6" points="175.5,157.2 158.4,167.1 158.4,186.8 175.5,176.9 "/>
<polygon class="st4" points="140.5,177.4 123.4,167.5 123.4,187.3 140.5,197.2 "/>
<polygon class="st5" points="140.5,177.4 157.6,167.5 140.5,157.6 123.4,167.5 "/>
<polygon class="st6" points="157.6,167.5 140.5,177.4 140.5,197.2 157.6,187.3 "/>
<polygon class="st4" points="122.8,187.6 105.7,177.7 105.7,197.5 122.8,207.4 "/>
<polygon class="st5" points="122.8,187.6 139.9,177.7 122.8,167.9 105.7,177.7 "/>
<polygon class="st6" points="139.9,177.7 122.8,187.6 122.8,207.4 139.9,197.5 "/>
<polygon class="st1" points="236.9,84.2 257,95.7 103,184.6 103,161.5 "/>
<polygon class="st0" points="103,184.6 103,188 257,99.1 257,95.7 "/>
<polygon class="st4" points="198.9,107.7 181.8,97.8 181.8,117.6 198.9,127.4 "/>
<polygon class="st5" points="198.9,107.7 216,97.8 198.9,87.9 181.8,97.8 "/>
<polygon class="st6" points="216,97.8 198.9,107.7 198.9,127.4 216,117.6 "/>
<polygon class="st4" points="168.8,125.4 151.7,115.5 151.7,135.3 168.8,145.1 "/>
<polygon class="st5" points="168.8,125.4 185.9,115.5 168.8,105.6 151.7,115.5 "/>
<polygon class="st6" points="185.9,115.5 168.8,125.4 168.8,145.1 185.9,135.3 "/>
<path class="st0" d="M103,263.9v-112l154-88.9v112l3-1.7V57.7l-160,92.4v115.5L103,263.9z"/>
<polygon class="st7" points="80,138.6 240,46.2 260,57.7 100,150.1 "/>
</svg>
