<?xml version="1.0" encoding="utf-8"?>
<!-- Generator: Adobe Illustrator 22.0.0, SVG Export Plug-In . SVG Version: 6.00 Build 0)  -->
<svg version="1.1" id="Shelf_x5F_right" xmlns="http://www.w3.org/2000/svg" xmlns:xlink="http://www.w3.org/1999/xlink" x="0px"
	 y="0px" viewBox="0 0 480 438.8" style="enable-background:new 0 0 480 438.8;" xml:space="preserve">
<style type="text/css">
	.st0{fill:#7DBBC9;}
	.st1{fill:#35606C;}
	.st2{fill:#497A86;}
	.st3{fill:#548794;}
	.st4{fill:#3F6D79;}
	.st5{fill:#AA9383;}
	.st6{fill:#C1A791;}
	.st7{fill:#CEB399;}
	.st8{fill:#73AEBC;}
</style>
<path class="st0" d="M240,46.2v115.5L400,254V138.6L240,46.2z M243.1,51.5l154,88.9v108.5l-154-88.9V51.5z"/>
<polygon class="st0" points="400,254 400,138.6 380,150.1 380,265.6 "/>
<polygon class="st1" points="223,171.5 223,62.9 243.1,74.6 243.1,160 "/>
<polygon class="st2" points="243.1,156.6 223,168 377,256.9 377,233.8 "/>
<polygon class="st3" points="377,256.9 377,260.4 223,171.5 223,168 "/>
<polygon class="st4" points="223,175 226,173.2 223,171.5 "/>
<polygon class="st5" points="241.6,157.3 224.5,147.4 224.5,167.2 241.6,177.1 "/>
<polygon class="st6" points="241.6,157.3 258.7,147.4 241.6,137.5 224.5,147.4 "/>
<polygon class="st7" points="258.7,147.4 241.6,157.3 241.6,177.1 258.7,167.2 "/>
<polygon class="st5" points="304.5,193.5 287.4,183.7 287.4,203.4 304.5,213.3 "/>
<polygon class="st6" points="304.5,193.5 321.6,183.7 304.5,173.8 287.4,183.7 "/>
<polygon class="st7" points="321.6,183.7 304.5,193.5 304.5,213.3 321.6,203.4 "/>
<polygon class="st5" points="322.2,203.8 305.1,193.9 305.1,213.6 322.2,223.5 "/>
<polygon class="st6" points="322.2,203.8 339.3,193.9 322.2,184 305.1,193.9 "/>
<polygon class="st7" points="339.3,193.9 322.2,203.8 322.2,223.5 339.3,213.6 "/>
<polygon class="st2" points="243.1,120.4 223,131.8 377,220.8 377,197.7 "/>
<polygon class="st3" points="377,220.8 377,224.2 223,135.3 223,131.8 "/>
<polygon class="st5" points="252,127.1 234.9,117.2 234.9,137 252,146.8 "/>
<polygon class="st6" points="252,127.1 269.1,117.2 252,107.3 234.9,117.2 "/>
<polygon class="st7" points="269.1,117.2 252,127.1 252,146.8 269.1,137 "/>
<polygon class="st5" points="269.7,137.3 252.6,127.4 252.6,147.2 269.7,157.1 "/>
<polygon class="st6" points="269.7,137.3 286.8,127.4 269.7,117.6 252.6,127.4 "/>
<polygon class="st7" points="286.8,127.4 269.7,137.3 269.7,157.1 286.8,147.2 "/>
<polygon class="st5" points="303.9,156.8 286.8,147 286.8,166.7 303.9,176.6 "/>
<polygon class="st6" points="303.9,156.8 321,147 303.9,137.1 286.8,147 "/>
<polygon class="st7" points="321,147 303.9,156.8 303.9,176.6 321,166.7 "/>
<polygon class="st5" points="321.6,167.1 304.5,157.2 304.5,176.9 321.6,186.8 "/>
<polygon class="st6" points="321.6,167.1 338.7,157.2 321.6,147.3 304.5,157.2 "/>
<polygon class="st7" points="338.7,157.2 321.6,167.1 321.6,186.8 338.7,176.9 "/>
<polygon class="st5" points="339.5,177.4 322.4,167.5 322.4,187.3 339.5,197.2 "/>
<polygon class="st6" points="339.5,177.4 356.6,167.5 339.5,157.6 322.4,167.5 "/>
<polygon class="st7" points="356.6,167.5 339.5,177.4 339.5,197.2 356.6,187.3 "/>
<polygon class="st5" points="357.2,187.6 340.1,177.7 340.1,197.5 357.2,207.4 "/>
<polygon class="st6" points="357.2,187.6 374.3,177.7 357.2,167.9 340.1,177.7 "/>
<polygon class="st7" points="374.3,177.7 357.2,187.6 357.2,207.4 374.3,197.5 "/>
<polygon class="st2" points="243.1,84.2 223,95.7 377,184.6 377,161.5 "/>
<polygon class="st3" points="377,184.6 377,188 223,99.1 223,95.7 "/>
<polygon class="st5" points="281.1,107.7 264,97.8 264,117.6 281.1,127.4 "/>
<polygon class="st6" points="281.1,107.7 298.2,97.8 281.1,87.9 264,97.8 "/>
<polygon class="st7" points="298.2,97.8 281.1,107.7 281.1,127.4 298.2,117.6 "/>
<polygon class="st5" points="311.2,125.4 294.1,115.5 294.1,135.3 311.2,145.1 "/>
<polygon class="st6" points="311.2,125.4 328.3,115.5 311.2,105.6 294.1,115.5 "/>
<polygon class="st7" points="328.3,115.5 311.2,125.4 311.2,145.1 328.3,135.3 "/>
<path class="st3" d="M380,265.6V150.1L220,57.7v115.5l3,1.7v-112l154,88.9v112L380,265.6z"/>
<polygon class="st8" points="400,138.6 240,46.2 220,57.7 380,150.1 "/>
</svg>
